<svg width="369" height="325" viewBox="0 0 369 325" fill="none" xmlns="http://www.w3.org/2000/svg">
<path d="M191.772 313.99C278.833 313.99 349.409 243.701 349.409 156.995C349.409 70.2891 278.833 0 191.772 0C104.712 0 34.1357 70.2891 34.1357 156.995C34.1357 243.701 104.712 313.99 191.772 313.99Z" fill="#DDEAF5"/>
<path d="M89.7372 267.914C79.583 283.423 82.3653 303.148 82.3653 303.148C82.3653 303.148 101.611 297.728 111.765 282.22C121.919 266.711 119.137 246.986 119.137 246.986C119.137 246.986 99.8914 252.406 89.7372 267.914Z" fill="#3F3D56"/>
<path d="M82.311 302.968C82.311 302.968 82.0638 302.929 81.6089 302.837C81.2459 302.764 80.7463 302.659 80.1362 302.515C74.6822 301.234 60.1819 296.905 50.7017 285.523C38.8364 271.27 39.336 251.357 39.336 251.357C39.336 251.357 57.4785 254.293 69.4332 267.093C69.9513 267.642 70.4553 268.213 70.9453 268.803C81.2696 281.204 82.2321 297.89 82.3084 302.015C82.3189 302.633 82.311 302.968 82.311 302.968Z" fill="#63B4FF"/>
<path d="M74.9935 267.914C85.1477 283.423 82.3655 303.148 82.3655 303.148C82.3655 303.148 63.12 297.728 52.9657 282.22C42.8115 266.711 45.5938 246.986 45.5938 246.986C45.5938 246.986 64.8393 252.406 74.9935 267.914Z" stroke="#3F3D56" stroke-width="2" stroke-miterlimit="10"/>
<path opacity="0.1" d="M82.3088 302.014C82.0406 302.336 81.8039 302.611 81.6093 302.837C81.178 303.326 80.9334 303.583 80.9334 303.583C80.9334 303.583 80.6363 303.211 80.1366 302.515C77.3938 298.706 68.5711 285.166 69.2522 269.525C69.289 268.706 69.3495 267.895 69.4337 267.092C69.9517 267.642 70.4557 268.212 70.9457 268.803C81.27 281.204 82.2325 297.889 82.3088 302.014Z" fill="black"/>
<path d="M97.3645 270.657C96.5619 289.154 82.7749 303.584 82.7749 303.584C82.7749 303.584 70.2892 288.023 71.0918 269.526C71.8944 251.029 85.6814 236.599 85.6814 236.599C85.6814 236.599 98.1671 252.159 97.3645 270.657Z" fill="#63B4FF"/>
<path d="M82.7754 303.06L85.8065 237.354" stroke="#3F3D56" stroke-width="2" stroke-miterlimit="10"/>
<path d="M184.5 325C286.397 325 369 318.284 369 310C369 301.716 286.397 295 184.5 295C82.6035 295 0 301.716 0 310C0 318.284 82.6035 325 184.5 325Z" fill="#3F3D56"/>
<path d="M213.823 130.032C209.223 131.579 205.056 135.198 204.114 139.941C203.677 142.14 203.945 144.426 203.577 146.637C202.725 151.765 198.683 155.682 194.955 159.32C191.227 162.958 187.377 167.185 187.105 172.376C186.807 178.061 190.946 183.386 190.23 189.033C189.398 195.594 182.44 199.845 180.72 206.233C179.571 210.498 180.979 215.092 183.294 218.858C187.707 226.034 195.249 230.906 203.281 233.518C211.313 236.13 219.867 236.679 228.316 236.767C238.603 236.875 249.773 235.995 257.502 229.233C261.917 225.336 264.69 219.921 265.264 214.073C265.999 206.241 262.716 198.147 264.98 190.611C266.405 185.868 269.979 181.536 269.446 176.613C268.924 171.801 264.703 168.389 261.808 164.501C259.105 160.871 257.464 156.584 255.856 152.357L250.355 137.896C249.274 135.053 248.086 132.063 245.676 130.197C241.165 126.704 233.91 127.391 228.635 128.111C223.74 128.779 218.529 128.449 213.823 130.032Z" fill="#2F2E41"/>
<path d="M215.546 172.158C215.546 172.158 217.984 180.051 199.695 189.159C181.405 198.266 201.524 207.981 201.524 207.981L222.861 212.838C222.861 212.838 244.809 209.802 247.247 206.159C249.686 202.516 253.953 190.373 252.734 188.552C251.822 187.255 250.802 186.036 249.686 184.909C249.686 184.909 235.054 182.48 235.664 175.801C236.274 169.122 215.546 172.158 215.546 172.158Z" fill="#FFB9B9"/>
<path opacity="0.1" d="M215.546 172.158C215.546 172.158 217.984 180.051 199.695 189.159C181.405 198.266 201.524 207.981 201.524 207.981L222.861 212.838C222.861 212.838 244.809 209.802 247.247 206.159C249.686 202.516 253.953 190.373 252.734 188.552C251.822 187.255 250.802 186.036 249.686 184.909C249.686 184.909 235.054 182.48 235.664 175.801C236.274 169.122 215.546 172.158 215.546 172.158Z" fill="black"/>
<path d="M227.434 184.605C238.208 184.605 246.942 175.906 246.942 165.175C246.942 154.445 238.208 145.746 227.434 145.746C216.659 145.746 207.925 154.445 207.925 165.175C207.925 175.906 216.659 184.605 227.434 184.605Z" fill="#FFB9B9"/>
<path d="M225.299 206.159C225.299 206.159 201.805 204.448 201.359 188.303C201.359 188.303 192.988 187.337 190.55 189.766C188.111 192.194 180.186 194.016 180.186 200.087C180.186 206.159 193.598 224.374 193.598 224.374C193.598 224.374 200.914 248.661 197.865 252.911C194.817 257.161 194.207 268.09 194.207 268.09C194.207 268.09 224.69 265.661 229.567 268.09C234.444 270.519 253.953 270.519 255.172 268.09C256.391 265.661 253.953 235.303 253.953 235.303C253.953 235.303 259.44 228.017 258.22 219.517L272.852 202.516C272.852 202.516 267.365 186.123 258.83 186.123C258.83 186.123 247.247 183.087 246.942 184.605C246.637 186.123 252.734 203.123 225.299 206.159Z" fill="#63B4FF"/>
<path d="M170.432 259.59C170.432 259.59 175.918 268.09 189.94 269.912C203.962 271.733 206.401 266.876 205.182 265.661C203.962 264.447 189.331 258.983 189.331 258.983L180.796 252.304L170.432 259.59Z" fill="#FFB9B9"/>
<path d="M270.413 252.304L254.563 261.411C254.563 261.411 233.835 260.197 241.76 266.269C249.685 272.34 264.317 269.911 264.317 269.911L278.339 263.233L270.413 252.304Z" fill="#FFB9B9"/>
<path d="M191.159 268.09C191.159 268.09 176.528 303.913 194.208 309.378C211.887 314.842 260.659 313.628 271.633 306.342C282.606 299.056 285.655 289.341 283.826 286.305C281.997 283.269 269.804 274.769 261.269 274.162C252.734 273.555 191.159 268.09 191.159 268.09Z" fill="#2F2E41"/>
<path opacity="0.05" d="M191.159 268.09C191.159 268.09 176.528 303.913 194.208 309.378C211.887 314.842 260.659 313.628 271.633 306.342C282.606 299.056 285.655 289.341 283.826 286.305C281.997 283.269 269.804 274.769 261.269 274.162C252.734 273.555 191.159 268.09 191.159 268.09Z" fill="black"/>
<path d="M260.224 270.316C260.224 270.316 311.869 251.697 311.26 274.162C310.65 296.627 278.339 302.698 278.339 302.698L268.585 303.913L214.936 305.734C214.936 305.734 216.765 296.02 212.497 294.805C212.497 294.805 226.519 291.162 227.129 290.555C227.738 289.948 262.488 277.805 264.927 277.197C267.365 276.59 274.681 271.733 280.168 272.34C280.168 272.34 286.264 267.483 292.97 268.697L274.071 269.912L260.224 270.316Z" fill="#2F2E41"/>
<path opacity="0.1" d="M260.224 270.316C260.224 270.316 311.869 251.697 311.26 274.162C310.65 296.627 278.339 302.698 278.339 302.698L268.585 303.913L214.936 305.734C214.936 305.734 216.765 296.02 212.497 294.805C212.497 294.805 226.519 291.162 227.129 290.555C227.738 289.948 262.488 277.805 264.927 277.197C267.365 276.59 274.681 271.733 280.168 272.34C280.168 272.34 286.264 267.483 292.97 268.697L274.071 269.912L260.224 270.316Z" fill="black"/>
<path d="M251.1 273.331L257.611 288.127L297.238 274.162L300.286 266.269L289.922 264.447L269.086 268.09L260.049 270.519L251.1 273.331Z" fill="#2F2E41"/>
<path opacity="0.1" d="M251.1 273.331L257.611 288.127L297.238 274.162L300.286 266.269L289.922 264.447L269.086 268.09L260.049 270.519L251.1 273.331Z" fill="black"/>
<path d="M166.773 291.162C166.773 291.162 178.357 305.734 191.769 309.377C205.181 313.02 212.497 308.163 212.497 308.163L208.229 291.162L206.4 280.233L198.475 274.769L182.624 267.483L163.725 261.411C163.725 261.411 155.8 260.197 155.8 261.411C155.8 262.626 163.116 280.841 163.116 280.841L166.773 291.162Z" fill="#2F2E41"/>
<path d="M180.796 299.056C180.796 299.056 183.234 316.664 186.283 317.878C189.331 319.092 198.476 316.664 200.914 315.449C203.353 314.235 211.642 308.632 211.642 308.632C211.642 308.632 182.625 297.841 180.796 299.056Z" fill="#DDEAF5"/>
<path d="M236.274 300.877L247.857 302.698L246.638 316.663L230.481 312.755L236.274 300.877Z" fill="#FFB9B9"/>
<path d="M243.531 304.764C243.531 304.764 238.103 311.199 243.59 314.842L247.247 317.878C247.247 317.878 259.44 320.307 260.66 321.521C261.879 322.735 266.756 319.699 266.756 319.699C266.756 319.699 267.366 301.484 266.756 300.27C266.146 299.056 258.831 297.841 258.221 299.056C257.611 300.27 250.296 302.092 246.028 300.877L243.531 304.764Z" fill="#DDEAF5"/>
<path d="M194.817 272.34C194.817 272.34 152.142 247.446 145.436 256.554C138.73 265.661 131.414 278.412 150.923 288.127C170.431 297.841 231.396 317.878 231.396 317.878C231.396 317.878 240.541 303.913 240.541 300.27C240.541 300.27 208.23 285.698 202.743 284.484C197.256 283.269 175.309 269.304 172.26 268.09C169.212 266.876 164.945 263.233 164.945 263.233L194.817 272.34Z" fill="#2F2E41"/>
<path d="M182.624 197.052L180.186 198.873C180.186 198.873 174.699 212.838 174.089 220.731C173.479 228.624 166.164 252.911 166.773 255.947C167.383 258.983 167.993 261.411 171.651 264.447C171.651 264.447 176.528 253.518 185.063 255.34L195.427 217.695L182.624 197.052Z" fill="#63B4FF"/>
<path d="M267.975 197.052L272.852 202.516C272.852 202.516 275.9 209.802 275.9 211.624C275.9 213.445 281.997 240.161 282.606 241.375C283.216 242.589 285.655 257.768 282.606 261.411C279.558 265.054 274.071 267.483 274.071 267.483C274.071 267.483 277.729 254.733 266.146 254.125L267.365 249.268L256.392 212.838L267.975 197.052Z" fill="#63B4FF"/>
<path d="M183.844 238.854V270.836C183.844 272.855 184.642 274.794 186.065 276.232C187.488 277.671 189.422 278.494 191.45 278.524L258.607 279.515C260.623 279.545 262.57 278.788 264.033 277.406C265.496 276.025 266.358 274.128 266.436 272.122L267.671 240.137C267.711 239.112 267.544 238.09 267.181 237.131C266.818 236.171 266.267 235.294 265.558 234.55C264.85 233.806 263.999 233.211 263.056 232.799C262.114 232.388 261.098 232.168 260.068 232.153L191.676 231.166C190.653 231.151 189.637 231.339 188.687 231.719C187.738 232.098 186.874 232.662 186.145 233.378C185.416 234.093 184.837 234.946 184.442 235.886C184.047 236.826 183.844 237.835 183.844 238.854Z" fill="#3F3D56"/>
<path d="M228.577 164.553C240.175 164.553 249.577 159.511 249.577 153.292C249.577 147.072 240.175 142.03 228.577 142.03C216.98 142.03 207.578 147.072 207.578 153.292C207.578 159.511 216.98 164.553 228.577 164.553Z" fill="#2F2E41"/>
<path d="M224.995 260.501C227.689 260.501 229.873 258.326 229.873 255.643C229.873 252.961 227.689 250.786 224.995 250.786C222.302 250.786 220.118 252.961 220.118 255.643C220.118 258.326 222.302 260.501 224.995 260.501Z" fill="#DDEAF5"/>
<path d="M357.745 254.659V310.128C357.745 311.081 357.23 311.217 356.394 311.679C353.57 313.238 346.611 316.017 338.255 311.619C337.397 311.168 336.869 311.015 336.869 310.049V255.015C336.869 255.015 347.486 259.279 357.745 254.659Z" fill="#2F2E41"/>
<path d="M347.307 256.829C353.072 256.829 357.745 255.841 357.745 254.622C357.745 253.402 353.072 252.414 347.307 252.414C341.542 252.414 336.869 253.402 336.869 254.622C336.869 255.841 341.542 256.829 347.307 256.829Z" fill="#3F3D56" stroke="#63B4FF" stroke-miterlimit="10"/>
<g opacity="0.8">
<path opacity="0.8" d="M356.795 277.926C356.924 277.926 357.029 277.821 357.029 277.692C357.029 277.563 356.924 277.459 356.795 277.459C356.665 277.459 356.561 277.563 356.561 277.692C356.561 277.821 356.665 277.926 356.795 277.926Z" fill="black"/>
<path opacity="0.8" d="M355.606 278.256C355.736 278.256 355.84 278.152 355.84 278.023C355.84 277.894 355.736 277.79 355.606 277.79C355.477 277.79 355.372 277.894 355.372 278.023C355.372 278.152 355.477 278.256 355.606 278.256Z" fill="black"/>
<path opacity="0.8" d="M354.138 278.723C354.267 278.723 354.372 278.618 354.372 278.49C354.372 278.361 354.267 278.256 354.138 278.256C354.008 278.256 353.903 278.361 353.903 278.49C353.903 278.618 354.008 278.723 354.138 278.723Z" fill="black"/>
<path opacity="0.8" d="M351.504 279.288C351.633 279.288 351.738 279.183 351.738 279.055C351.738 278.926 351.633 278.821 351.504 278.821C351.374 278.821 351.27 278.926 351.27 279.055C351.27 279.183 351.374 279.288 351.504 279.288Z" fill="black"/>
<path opacity="0.8" d="M348.726 279.623C348.856 279.623 348.961 279.518 348.961 279.389C348.961 279.261 348.856 279.156 348.726 279.156C348.597 279.156 348.492 279.261 348.492 279.389C348.492 279.518 348.597 279.623 348.726 279.623Z" fill="black"/>
<path opacity="0.8" d="M345.851 279.755C345.981 279.755 346.086 279.65 346.086 279.521C346.086 279.393 345.981 279.288 345.851 279.288C345.722 279.288 345.617 279.393 345.617 279.521C345.617 279.65 345.722 279.755 345.851 279.755Z" fill="black"/>
<path opacity="0.8" d="M341.723 279.19C341.853 279.19 341.958 279.085 341.958 278.956C341.958 278.828 341.853 278.723 341.723 278.723C341.594 278.723 341.489 278.828 341.489 278.956C341.489 279.085 341.594 279.19 341.723 279.19Z" fill="black"/>
<path opacity="0.8" d="M343.091 279.521C343.22 279.521 343.325 279.417 343.325 279.288C343.325 279.159 343.22 279.055 343.091 279.055C342.961 279.055 342.856 279.159 342.856 279.288C342.856 279.417 342.961 279.521 343.091 279.521Z" fill="black"/>
<path opacity="0.8" d="M339.169 278.723C339.298 278.723 339.403 278.618 339.403 278.49C339.403 278.361 339.298 278.256 339.169 278.256C339.039 278.256 338.935 278.361 338.935 278.49C338.935 278.618 339.039 278.723 339.169 278.723Z" fill="black"/>
<path opacity="0.8" d="M340.399 278.956C340.529 278.956 340.633 278.852 340.633 278.723C340.633 278.594 340.529 278.49 340.399 278.49C340.27 278.49 340.165 278.594 340.165 278.723C340.165 278.852 340.27 278.956 340.399 278.956Z" fill="black"/>
<path opacity="0.8" d="M337.82 278.256C337.949 278.256 338.054 278.152 338.054 278.023C338.054 277.894 337.949 277.79 337.82 277.79C337.691 277.79 337.586 277.894 337.586 278.023C337.586 278.152 337.691 278.256 337.82 278.256Z" fill="black"/>
<path opacity="0.8" d="M352.793 279.055C352.922 279.055 353.027 278.95 353.027 278.822C353.027 278.693 352.922 278.588 352.793 278.588C352.663 278.588 352.559 278.693 352.559 278.822C352.559 278.95 352.663 279.055 352.793 279.055Z" fill="black"/>
<path opacity="0.8" d="M350.075 279.521C350.204 279.521 350.309 279.417 350.309 279.288C350.309 279.159 350.204 279.055 350.075 279.055C349.946 279.055 349.841 279.159 349.841 279.288C349.841 279.417 349.946 279.521 350.075 279.521Z" fill="black"/>
<path opacity="0.8" d="M347.127 279.755C347.256 279.755 347.361 279.65 347.361 279.521C347.361 279.393 347.256 279.288 347.127 279.288C346.997 279.288 346.893 279.393 346.893 279.521C346.893 279.65 346.997 279.755 347.127 279.755Z" fill="black"/>
<path opacity="0.8" d="M344.444 279.755C344.573 279.755 344.678 279.65 344.678 279.521C344.678 279.393 344.573 279.288 344.444 279.288C344.315 279.288 344.21 279.393 344.21 279.521C344.21 279.65 344.315 279.755 344.444 279.755Z" fill="black"/>
</g>
<g opacity="0.8">
<path opacity="0.8" d="M356.795 279.073C356.924 279.073 357.029 278.969 357.029 278.84C357.029 278.711 356.924 278.607 356.795 278.607C356.665 278.607 356.561 278.711 356.561 278.84C356.561 278.969 356.665 279.073 356.795 279.073Z" fill="black"/>
<path opacity="0.8" d="M355.606 279.404C355.736 279.404 355.84 279.3 355.84 279.171C355.84 279.042 355.736 278.938 355.606 278.938C355.477 278.938 355.372 279.042 355.372 279.171C355.372 279.3 355.477 279.404 355.606 279.404Z" fill="black"/>
<path opacity="0.8" d="M354.138 279.871C354.267 279.871 354.372 279.766 354.372 279.638C354.372 279.509 354.267 279.404 354.138 279.404C354.008 279.404 353.903 279.509 353.903 279.638C353.903 279.766 354.008 279.871 354.138 279.871Z" fill="black"/>
<path opacity="0.8" d="M351.504 280.436C351.633 280.436 351.738 280.332 351.738 280.203C351.738 280.074 351.633 279.97 351.504 279.97C351.374 279.97 351.27 280.074 351.27 280.203C351.27 280.332 351.374 280.436 351.504 280.436Z" fill="black"/>
<path opacity="0.8" d="M348.726 280.771C348.856 280.771 348.961 280.666 348.961 280.537C348.961 280.409 348.856 280.304 348.726 280.304C348.597 280.304 348.492 280.409 348.492 280.537C348.492 280.666 348.597 280.771 348.726 280.771Z" fill="black"/>
<path opacity="0.8" d="M345.851 280.902C345.981 280.902 346.086 280.798 346.086 280.669C346.086 280.54 345.981 280.436 345.851 280.436C345.722 280.436 345.617 280.54 345.617 280.669C345.617 280.798 345.722 280.902 345.851 280.902Z" fill="black"/>
<path opacity="0.8" d="M341.723 280.338C341.853 280.338 341.958 280.233 341.958 280.104C341.958 279.976 341.853 279.871 341.723 279.871C341.594 279.871 341.489 279.976 341.489 280.104C341.489 280.233 341.594 280.338 341.723 280.338Z" fill="black"/>
<path opacity="0.8" d="M343.091 280.669C343.22 280.669 343.325 280.565 343.325 280.436C343.325 280.307 343.22 280.203 343.091 280.203C342.961 280.203 342.856 280.307 342.856 280.436C342.856 280.565 342.961 280.669 343.091 280.669Z" fill="black"/>
<path opacity="0.8" d="M339.169 279.871C339.298 279.871 339.403 279.766 339.403 279.638C339.403 279.509 339.298 279.404 339.169 279.404C339.039 279.404 338.935 279.509 338.935 279.638C338.935 279.766 339.039 279.871 339.169 279.871Z" fill="black"/>
<path opacity="0.8" d="M340.399 280.104C340.529 280.104 340.633 280 340.633 279.871C340.633 279.742 340.529 279.638 340.399 279.638C340.27 279.638 340.165 279.742 340.165 279.871C340.165 280 340.27 280.104 340.399 280.104Z" fill="black"/>
<path opacity="0.8" d="M337.82 279.405C337.949 279.405 338.054 279.301 338.054 279.172C338.054 279.043 337.949 278.939 337.82 278.939C337.691 278.939 337.586 279.043 337.586 279.172C337.586 279.301 337.691 279.405 337.82 279.405Z" fill="black"/>
<path opacity="0.8" d="M352.793 280.203C352.922 280.203 353.027 280.098 353.027 279.97C353.027 279.841 352.922 279.736 352.793 279.736C352.663 279.736 352.559 279.841 352.559 279.97C352.559 280.098 352.663 280.203 352.793 280.203Z" fill="black"/>
<path opacity="0.8" d="M350.075 280.669C350.204 280.669 350.309 280.565 350.309 280.436C350.309 280.307 350.204 280.203 350.075 280.203C349.946 280.203 349.841 280.307 349.841 280.436C349.841 280.565 349.946 280.669 350.075 280.669Z" fill="black"/>
<path opacity="0.8" d="M347.127 280.902C347.256 280.902 347.361 280.798 347.361 280.669C347.361 280.54 347.256 280.436 347.127 280.436C346.997 280.436 346.893 280.54 346.893 280.669C346.893 280.798 346.997 280.902 347.127 280.902Z" fill="black"/>
<path opacity="0.8" d="M344.444 280.902C344.573 280.902 344.678 280.798 344.678 280.669C344.678 280.54 344.573 280.436 344.444 280.436C344.315 280.436 344.21 280.54 344.21 280.669C344.21 280.798 344.315 280.902 344.444 280.902Z" fill="black"/>
</g>
<g opacity="0.8">
<path opacity="0.8" d="M356.795 280.221C356.924 280.221 357.029 280.117 357.029 279.988C357.029 279.859 356.924 279.755 356.795 279.755C356.665 279.755 356.561 279.859 356.561 279.988C356.561 280.117 356.665 280.221 356.795 280.221Z" fill="black"/>
<path opacity="0.8" d="M355.606 280.552C355.736 280.552 355.84 280.448 355.84 280.319C355.84 280.19 355.736 280.086 355.606 280.086C355.477 280.086 355.372 280.19 355.372 280.319C355.372 280.448 355.477 280.552 355.606 280.552Z" fill="black"/>
<path opacity="0.8" d="M354.138 281.019C354.267 281.019 354.372 280.915 354.372 280.786C354.372 280.657 354.267 280.553 354.138 280.553C354.008 280.553 353.903 280.657 353.903 280.786C353.903 280.915 354.008 281.019 354.138 281.019Z" fill="black"/>
<path opacity="0.8" d="M351.504 281.584C351.633 281.584 351.738 281.48 351.738 281.351C351.738 281.222 351.633 281.118 351.504 281.118C351.374 281.118 351.27 281.222 351.27 281.351C351.27 281.48 351.374 281.584 351.504 281.584Z" fill="black"/>
<path opacity="0.8" d="M348.726 281.919C348.856 281.919 348.961 281.814 348.961 281.685C348.961 281.557 348.856 281.452 348.726 281.452C348.597 281.452 348.492 281.557 348.492 281.685C348.492 281.814 348.597 281.919 348.726 281.919Z" fill="black"/>
<path opacity="0.8" d="M345.851 282.05C345.981 282.05 346.086 281.946 346.086 281.817C346.086 281.688 345.981 281.584 345.851 281.584C345.722 281.584 345.617 281.688 345.617 281.817C345.617 281.946 345.722 282.05 345.851 282.05Z" fill="black"/>
<path opacity="0.8" d="M341.723 281.486C341.853 281.486 341.958 281.381 341.958 281.252C341.958 281.123 341.853 281.019 341.723 281.019C341.594 281.019 341.489 281.123 341.489 281.252C341.489 281.381 341.594 281.486 341.723 281.486Z" fill="black"/>
<path opacity="0.8" d="M343.091 281.817C343.22 281.817 343.325 281.713 343.325 281.584C343.325 281.455 343.22 281.351 343.091 281.351C342.961 281.351 342.856 281.455 342.856 281.584C342.856 281.713 342.961 281.817 343.091 281.817Z" fill="black"/>
<path opacity="0.8" d="M339.169 281.019C339.298 281.019 339.403 280.915 339.403 280.786C339.403 280.657 339.298 280.553 339.169 280.553C339.039 280.553 338.935 280.657 338.935 280.786C338.935 280.915 339.039 281.019 339.169 281.019Z" fill="black"/>
<path opacity="0.8" d="M340.399 281.252C340.529 281.252 340.633 281.148 340.633 281.019C340.633 280.89 340.529 280.786 340.399 280.786C340.27 280.786 340.165 280.89 340.165 281.019C340.165 281.148 340.27 281.252 340.399 281.252Z" fill="black"/>
<path opacity="0.8" d="M337.82 280.552C337.949 280.552 338.054 280.448 338.054 280.319C338.054 280.19 337.949 280.086 337.82 280.086C337.691 280.086 337.586 280.19 337.586 280.319C337.586 280.448 337.691 280.552 337.82 280.552Z" fill="black"/>
<path opacity="0.8" d="M352.793 281.351C352.922 281.351 353.027 281.246 353.027 281.118C353.027 280.989 352.922 280.884 352.793 280.884C352.663 280.884 352.559 280.989 352.559 281.118C352.559 281.246 352.663 281.351 352.793 281.351Z" fill="black"/>
<path opacity="0.8" d="M350.075 281.817C350.204 281.817 350.309 281.713 350.309 281.584C350.309 281.455 350.204 281.351 350.075 281.351C349.946 281.351 349.841 281.455 349.841 281.584C349.841 281.713 349.946 281.817 350.075 281.817Z" fill="black"/>
<path opacity="0.8" d="M347.127 282.05C347.256 282.05 347.361 281.946 347.361 281.817C347.361 281.688 347.256 281.584 347.127 281.584C346.997 281.584 346.893 281.688 346.893 281.817C346.893 281.946 346.997 282.05 347.127 282.05Z" fill="black"/>
<path opacity="0.8" d="M344.444 282.05C344.573 282.05 344.678 281.946 344.678 281.817C344.678 281.688 344.573 281.584 344.444 281.584C344.315 281.584 344.21 281.688 344.21 281.817C344.21 281.946 344.315 282.05 344.444 282.05Z" fill="black"/>
</g>
<g opacity="0.8">
<path opacity="0.8" d="M356.795 281.369C356.924 281.369 357.029 281.264 357.029 281.136C357.029 281.007 356.924 280.902 356.795 280.902C356.665 280.902 356.561 281.007 356.561 281.136C356.561 281.264 356.665 281.369 356.795 281.369Z" fill="black"/>
<path opacity="0.8" d="M355.606 281.7C355.736 281.7 355.84 281.595 355.84 281.467C355.84 281.338 355.736 281.233 355.606 281.233C355.477 281.233 355.372 281.338 355.372 281.467C355.372 281.595 355.477 281.7 355.606 281.7Z" fill="black"/>
<path opacity="0.8" d="M354.138 282.166C354.267 282.166 354.372 282.062 354.372 281.933C354.372 281.804 354.267 281.7 354.138 281.7C354.008 281.7 353.903 281.804 353.903 281.933C353.903 282.062 354.008 282.166 354.138 282.166Z" fill="black"/>
<path opacity="0.8" d="M351.504 282.731C351.633 282.731 351.738 282.627 351.738 282.498C351.738 282.369 351.633 282.265 351.504 282.265C351.374 282.265 351.27 282.369 351.27 282.498C351.27 282.627 351.374 282.731 351.504 282.731Z" fill="black"/>
<path opacity="0.8" d="M348.726 283.066C348.856 283.066 348.961 282.962 348.961 282.833C348.961 282.704 348.856 282.6 348.726 282.6C348.597 282.6 348.492 282.704 348.492 282.833C348.492 282.962 348.597 283.066 348.726 283.066Z" fill="black"/>
<path opacity="0.8" d="M345.851 283.198C345.981 283.198 346.086 283.094 346.086 282.965C346.086 282.836 345.981 282.731 345.851 282.731C345.722 282.731 345.617 282.836 345.617 282.965C345.617 283.094 345.722 283.198 345.851 283.198Z" fill="black"/>
<path opacity="0.8" d="M341.723 282.633C341.853 282.633 341.958 282.529 341.958 282.4C341.958 282.271 341.853 282.167 341.723 282.167C341.594 282.167 341.489 282.271 341.489 282.4C341.489 282.529 341.594 282.633 341.723 282.633Z" fill="black"/>
<path opacity="0.8" d="M343.091 282.965C343.22 282.965 343.325 282.86 343.325 282.731C343.325 282.602 343.22 282.498 343.091 282.498C342.961 282.498 342.856 282.602 342.856 282.731C342.856 282.86 342.961 282.965 343.091 282.965Z" fill="black"/>
<path opacity="0.8" d="M339.169 282.166C339.298 282.166 339.403 282.062 339.403 281.933C339.403 281.804 339.298 281.7 339.169 281.7C339.039 281.7 338.935 281.804 338.935 281.933C338.935 282.062 339.039 282.166 339.169 282.166Z" fill="black"/>
<path opacity="0.8" d="M340.399 282.4C340.529 282.4 340.633 282.295 340.633 282.166C340.633 282.038 340.529 281.933 340.399 281.933C340.27 281.933 340.165 282.038 340.165 282.166C340.165 282.295 340.27 282.4 340.399 282.4Z" fill="black"/>
<path opacity="0.8" d="M337.82 281.7C337.949 281.7 338.054 281.595 338.054 281.467C338.054 281.338 337.949 281.233 337.82 281.233C337.691 281.233 337.586 281.338 337.586 281.467C337.586 281.595 337.691 281.7 337.82 281.7Z" fill="black"/>
<path opacity="0.8" d="M352.793 282.498C352.922 282.498 353.027 282.394 353.027 282.265C353.027 282.136 352.922 282.032 352.793 282.032C352.663 282.032 352.559 282.136 352.559 282.265C352.559 282.394 352.663 282.498 352.793 282.498Z" fill="black"/>
<path opacity="0.8" d="M350.075 282.965C350.204 282.965 350.309 282.86 350.309 282.731C350.309 282.602 350.204 282.498 350.075 282.498C349.946 282.498 349.841 282.602 349.841 282.731C349.841 282.86 349.946 282.965 350.075 282.965Z" fill="black"/>
<path opacity="0.8" d="M347.127 283.198C347.256 283.198 347.361 283.094 347.361 282.965C347.361 282.836 347.256 282.731 347.127 282.731C346.997 282.731 346.893 282.836 346.893 282.965C346.893 283.094 346.997 283.198 347.127 283.198Z" fill="black"/>
<path opacity="0.8" d="M344.444 283.198C344.573 283.198 344.678 283.094 344.678 282.965C344.678 282.836 344.573 282.731 344.444 282.731C344.315 282.731 344.21 282.836 344.21 282.965C344.21 283.094 344.315 283.198 344.444 283.198Z" fill="black"/>
</g>
<g opacity="0.8">
<path opacity="0.8" d="M356.795 282.517C356.924 282.517 357.029 282.412 357.029 282.284C357.029 282.155 356.924 282.05 356.795 282.05C356.665 282.05 356.561 282.155 356.561 282.284C356.561 282.412 356.665 282.517 356.795 282.517Z" fill="black"/>
<path opacity="0.8" d="M355.606 282.848C355.736 282.848 355.84 282.743 355.84 282.615C355.84 282.486 355.736 282.381 355.606 282.381C355.477 282.381 355.372 282.486 355.372 282.615C355.372 282.743 355.477 282.848 355.606 282.848Z" fill="black"/>
<path opacity="0.8" d="M354.138 283.314C354.267 283.314 354.372 283.21 354.372 283.081C354.372 282.952 354.267 282.848 354.138 282.848C354.008 282.848 353.903 282.952 353.903 283.081C353.903 283.21 354.008 283.314 354.138 283.314Z" fill="black"/>
<path opacity="0.8" d="M351.504 283.88C351.633 283.88 351.738 283.775 351.738 283.646C351.738 283.517 351.633 283.413 351.504 283.413C351.374 283.413 351.27 283.517 351.27 283.646C351.27 283.775 351.374 283.88 351.504 283.88Z" fill="black"/>
<path opacity="0.8" d="M348.726 284.214C348.856 284.214 348.961 284.11 348.961 283.981C348.961 283.852 348.856 283.748 348.726 283.748C348.597 283.748 348.492 283.852 348.492 283.981C348.492 284.11 348.597 284.214 348.726 284.214Z" fill="black"/>
<path opacity="0.8" d="M345.851 284.346C345.981 284.346 346.086 284.241 346.086 284.113C346.086 283.984 345.981 283.879 345.851 283.879C345.722 283.879 345.617 283.984 345.617 284.113C345.617 284.241 345.722 284.346 345.851 284.346Z" fill="black"/>
<path opacity="0.8" d="M341.723 283.781C341.853 283.781 341.958 283.677 341.958 283.548C341.958 283.419 341.853 283.314 341.723 283.314C341.594 283.314 341.489 283.419 341.489 283.548C341.489 283.677 341.594 283.781 341.723 283.781Z" fill="black"/>
<path opacity="0.8" d="M343.091 284.113C343.22 284.113 343.325 284.008 343.325 283.879C343.325 283.75 343.22 283.646 343.091 283.646C342.961 283.646 342.856 283.75 342.856 283.879C342.856 284.008 342.961 284.113 343.091 284.113Z" fill="black"/>
<path opacity="0.8" d="M339.169 283.314C339.298 283.314 339.403 283.21 339.403 283.081C339.403 282.952 339.298 282.848 339.169 282.848C339.039 282.848 338.935 282.952 338.935 283.081C338.935 283.21 339.039 283.314 339.169 283.314Z" fill="black"/>
<path opacity="0.8" d="M340.399 283.548C340.529 283.548 340.633 283.443 340.633 283.314C340.633 283.185 340.529 283.081 340.399 283.081C340.27 283.081 340.165 283.185 340.165 283.314C340.165 283.443 340.27 283.548 340.399 283.548Z" fill="black"/>
<path opacity="0.8" d="M337.82 282.848C337.949 282.848 338.054 282.743 338.054 282.615C338.054 282.486 337.949 282.381 337.82 282.381C337.691 282.381 337.586 282.486 337.586 282.615C337.586 282.743 337.691 282.848 337.82 282.848Z" fill="black"/>
<path opacity="0.8" d="M352.793 283.646C352.922 283.646 353.027 283.542 353.027 283.413C353.027 283.284 352.922 283.18 352.793 283.18C352.663 283.18 352.559 283.284 352.559 283.413C352.559 283.542 352.663 283.646 352.793 283.646Z" fill="black"/>
<path opacity="0.8" d="M350.075 284.113C350.204 284.113 350.309 284.008 350.309 283.879C350.309 283.75 350.204 283.646 350.075 283.646C349.946 283.646 349.841 283.75 349.841 283.879C349.841 284.008 349.946 284.113 350.075 284.113Z" fill="black"/>
<path opacity="0.8" d="M347.127 284.346C347.256 284.346 347.361 284.241 347.361 284.113C347.361 283.984 347.256 283.879 347.127 283.879C346.997 283.879 346.893 283.984 346.893 284.113C346.893 284.241 346.997 284.346 347.127 284.346Z" fill="black"/>
<path opacity="0.8" d="M344.444 284.346C344.573 284.346 344.678 284.241 344.678 284.113C344.678 283.984 344.573 283.879 344.444 283.879C344.315 283.879 344.21 283.984 344.21 284.113C344.21 284.241 344.315 284.346 344.444 284.346Z" fill="black"/>
</g>
<g opacity="0.8">
<path opacity="0.8" d="M356.795 283.665C356.924 283.665 357.029 283.56 357.029 283.432C357.029 283.303 356.924 283.198 356.795 283.198C356.665 283.198 356.561 283.303 356.561 283.432C356.561 283.56 356.665 283.665 356.795 283.665Z" fill="black"/>
<path opacity="0.8" d="M355.606 283.996C355.736 283.996 355.84 283.891 355.84 283.763C355.84 283.634 355.736 283.529 355.606 283.529C355.477 283.529 355.372 283.634 355.372 283.763C355.372 283.891 355.477 283.996 355.606 283.996Z" fill="black"/>
<path opacity="0.8" d="M354.138 284.462C354.267 284.462 354.372 284.358 354.372 284.229C354.372 284.1 354.267 283.996 354.138 283.996C354.008 283.996 353.903 284.1 353.903 284.229C353.903 284.358 354.008 284.462 354.138 284.462Z" fill="black"/>
<path opacity="0.8" d="M351.504 285.027C351.633 285.027 351.738 284.923 351.738 284.794C351.738 284.665 351.633 284.561 351.504 284.561C351.374 284.561 351.27 284.665 351.27 284.794C351.27 284.923 351.374 285.027 351.504 285.027Z" fill="black"/>
<path opacity="0.8" d="M348.726 285.362C348.856 285.362 348.961 285.258 348.961 285.129C348.961 285 348.856 284.896 348.726 284.896C348.597 284.896 348.492 285 348.492 285.129C348.492 285.258 348.597 285.362 348.726 285.362Z" fill="black"/>
<path opacity="0.8" d="M345.851 285.494C345.981 285.494 346.086 285.389 346.086 285.261C346.086 285.132 345.981 285.027 345.851 285.027C345.722 285.027 345.617 285.132 345.617 285.261C345.617 285.389 345.722 285.494 345.851 285.494Z" fill="black"/>
<path opacity="0.8" d="M341.723 284.929C341.853 284.929 341.958 284.824 341.958 284.696C341.958 284.567 341.853 284.462 341.723 284.462C341.594 284.462 341.489 284.567 341.489 284.696C341.489 284.824 341.594 284.929 341.723 284.929Z" fill="black"/>
<path opacity="0.8" d="M343.091 285.26C343.22 285.26 343.325 285.156 343.325 285.027C343.325 284.898 343.22 284.794 343.091 284.794C342.961 284.794 342.856 284.898 342.856 285.027C342.856 285.156 342.961 285.26 343.091 285.26Z" fill="black"/>
<path opacity="0.8" d="M339.169 284.462C339.298 284.462 339.403 284.358 339.403 284.229C339.403 284.1 339.298 283.996 339.169 283.996C339.039 283.996 338.935 284.1 338.935 284.229C338.935 284.358 339.039 284.462 339.169 284.462Z" fill="black"/>
<path opacity="0.8" d="M340.399 284.695C340.529 284.695 340.633 284.591 340.633 284.462C340.633 284.333 340.529 284.229 340.399 284.229C340.27 284.229 340.165 284.333 340.165 284.462C340.165 284.591 340.27 284.695 340.399 284.695Z" fill="black"/>
<path opacity="0.8" d="M337.82 283.997C337.949 283.997 338.054 283.892 338.054 283.764C338.054 283.635 337.949 283.53 337.82 283.53C337.691 283.53 337.586 283.635 337.586 283.764C337.586 283.892 337.691 283.997 337.82 283.997Z" fill="black"/>
<path opacity="0.8" d="M352.793 284.794C352.922 284.794 353.027 284.69 353.027 284.561C353.027 284.432 352.922 284.328 352.793 284.328C352.663 284.328 352.559 284.432 352.559 284.561C352.559 284.69 352.663 284.794 352.793 284.794Z" fill="black"/>
<path opacity="0.8" d="M350.075 285.26C350.204 285.26 350.309 285.156 350.309 285.027C350.309 284.898 350.204 284.794 350.075 284.794C349.946 284.794 349.841 284.898 349.841 285.027C349.841 285.156 349.946 285.26 350.075 285.26Z" fill="black"/>
<path opacity="0.8" d="M347.127 285.494C347.256 285.494 347.361 285.389 347.361 285.261C347.361 285.132 347.256 285.027 347.127 285.027C346.997 285.027 346.893 285.132 346.893 285.261C346.893 285.389 346.997 285.494 347.127 285.494Z" fill="black"/>
<path opacity="0.8" d="M344.444 285.494C344.573 285.494 344.678 285.389 344.678 285.261C344.678 285.132 344.573 285.027 344.444 285.027C344.315 285.027 344.21 285.132 344.21 285.261C344.21 285.389 344.315 285.494 344.444 285.494Z" fill="black"/>
</g>
<g opacity="0.8">
<path opacity="0.8" d="M356.795 284.812C356.924 284.812 357.029 284.708 357.029 284.579C357.029 284.45 356.924 284.346 356.795 284.346C356.665 284.346 356.561 284.45 356.561 284.579C356.561 284.708 356.665 284.812 356.795 284.812Z" fill="black"/>
<path opacity="0.8" d="M355.606 285.143C355.736 285.143 355.84 285.039 355.84 284.91C355.84 284.781 355.736 284.677 355.606 284.677C355.477 284.677 355.372 284.781 355.372 284.91C355.372 285.039 355.477 285.143 355.606 285.143Z" fill="black"/>
<path opacity="0.8" d="M354.138 285.61C354.267 285.61 354.372 285.506 354.372 285.377C354.372 285.248 354.267 285.144 354.138 285.144C354.008 285.144 353.903 285.248 353.903 285.377C353.903 285.506 354.008 285.61 354.138 285.61Z" fill="black"/>
<path opacity="0.8" d="M351.504 286.174C351.633 286.174 351.738 286.07 351.738 285.941C351.738 285.812 351.633 285.708 351.504 285.708C351.374 285.708 351.27 285.812 351.27 285.941C351.27 286.07 351.374 286.174 351.504 286.174Z" fill="black"/>
<path opacity="0.8" d="M348.726 286.509C348.856 286.509 348.961 286.405 348.961 286.276C348.961 286.147 348.856 286.043 348.726 286.043C348.597 286.043 348.492 286.147 348.492 286.276C348.492 286.405 348.597 286.509 348.726 286.509Z" fill="black"/>
<path opacity="0.8" d="M345.851 286.641C345.981 286.641 346.086 286.537 346.086 286.408C346.086 286.279 345.981 286.175 345.851 286.175C345.722 286.175 345.617 286.279 345.617 286.408C345.617 286.537 345.722 286.641 345.851 286.641Z" fill="black"/>
<path opacity="0.8" d="M341.723 286.076C341.853 286.076 341.958 285.972 341.958 285.843C341.958 285.714 341.853 285.61 341.723 285.61C341.594 285.61 341.489 285.714 341.489 285.843C341.489 285.972 341.594 286.076 341.723 286.076Z" fill="black"/>
<path opacity="0.8" d="M343.091 286.408C343.22 286.408 343.325 286.304 343.325 286.175C343.325 286.046 343.22 285.942 343.091 285.942C342.961 285.942 342.856 286.046 342.856 286.175C342.856 286.304 342.961 286.408 343.091 286.408Z" fill="black"/>
<path opacity="0.8" d="M339.169 285.61C339.298 285.61 339.403 285.506 339.403 285.377C339.403 285.248 339.298 285.144 339.169 285.144C339.039 285.144 338.935 285.248 338.935 285.377C338.935 285.506 339.039 285.61 339.169 285.61Z" fill="black"/>
<path opacity="0.8" d="M340.399 285.843C340.529 285.843 340.633 285.739 340.633 285.61C340.633 285.481 340.529 285.376 340.399 285.376C340.27 285.376 340.165 285.481 340.165 285.61C340.165 285.739 340.27 285.843 340.399 285.843Z" fill="black"/>
<path opacity="0.8" d="M337.82 285.143C337.949 285.143 338.054 285.039 338.054 284.91C338.054 284.781 337.949 284.677 337.82 284.677C337.691 284.677 337.586 284.781 337.586 284.91C337.586 285.039 337.691 285.143 337.82 285.143Z" fill="black"/>
<path opacity="0.8" d="M352.793 285.942C352.922 285.942 353.027 285.837 353.027 285.708C353.027 285.579 352.922 285.475 352.793 285.475C352.663 285.475 352.559 285.579 352.559 285.708C352.559 285.837 352.663 285.942 352.793 285.942Z" fill="black"/>
<path opacity="0.8" d="M350.075 286.408C350.204 286.408 350.309 286.304 350.309 286.175C350.309 286.046 350.204 285.942 350.075 285.942C349.946 285.942 349.841 286.046 349.841 286.175C349.841 286.304 349.946 286.408 350.075 286.408Z" fill="black"/>
<path opacity="0.8" d="M347.127 286.641C347.256 286.641 347.361 286.537 347.361 286.408C347.361 286.279 347.256 286.175 347.127 286.175C346.997 286.175 346.893 286.279 346.893 286.408C346.893 286.537 346.997 286.641 347.127 286.641Z" fill="black"/>
<path opacity="0.8" d="M344.444 286.641C344.573 286.641 344.678 286.537 344.678 286.408C344.678 286.279 344.573 286.175 344.444 286.175C344.315 286.175 344.21 286.279 344.21 286.408C344.21 286.537 344.315 286.641 344.444 286.641Z" fill="black"/>
</g>
<g opacity="0.8">
<path opacity="0.8" d="M356.795 285.96C356.924 285.96 357.029 285.856 357.029 285.727C357.029 285.598 356.924 285.494 356.795 285.494C356.665 285.494 356.561 285.598 356.561 285.727C356.561 285.856 356.665 285.96 356.795 285.96Z" fill="black"/>
<path opacity="0.8" d="M355.606 286.291C355.736 286.291 355.84 286.187 355.84 286.058C355.84 285.929 355.736 285.825 355.606 285.825C355.477 285.825 355.372 285.929 355.372 286.058C355.372 286.187 355.477 286.291 355.606 286.291Z" fill="black"/>
<path opacity="0.8" d="M354.138 286.758C354.267 286.758 354.372 286.653 354.372 286.524C354.372 286.395 354.267 286.291 354.138 286.291C354.008 286.291 353.903 286.395 353.903 286.524C353.903 286.653 354.008 286.758 354.138 286.758Z" fill="black"/>
<path opacity="0.8" d="M351.504 287.322C351.633 287.322 351.738 287.218 351.738 287.089C351.738 286.96 351.633 286.856 351.504 286.856C351.374 286.856 351.27 286.96 351.27 287.089C351.27 287.218 351.374 287.322 351.504 287.322Z" fill="black"/>
<path opacity="0.8" d="M348.726 287.657C348.856 287.657 348.961 287.553 348.961 287.424C348.961 287.295 348.856 287.191 348.726 287.191C348.597 287.191 348.492 287.295 348.492 287.424C348.492 287.553 348.597 287.657 348.726 287.657Z" fill="black"/>
<path opacity="0.8" d="M345.851 287.789C345.981 287.789 346.086 287.685 346.086 287.556C346.086 287.427 345.981 287.323 345.851 287.323C345.722 287.323 345.617 287.427 345.617 287.556C345.617 287.685 345.722 287.789 345.851 287.789Z" fill="black"/>
<path opacity="0.8" d="M341.723 287.224C341.853 287.224 341.958 287.12 341.958 286.991C341.958 286.862 341.853 286.758 341.723 286.758C341.594 286.758 341.489 286.862 341.489 286.991C341.489 287.12 341.594 287.224 341.723 287.224Z" fill="black"/>
<path opacity="0.8" d="M343.091 287.556C343.22 287.556 343.325 287.451 343.325 287.323C343.325 287.194 343.22 287.089 343.091 287.089C342.961 287.089 342.856 287.194 342.856 287.323C342.856 287.451 342.961 287.556 343.091 287.556Z" fill="black"/>
<path opacity="0.8" d="M339.169 286.758C339.298 286.758 339.403 286.653 339.403 286.524C339.403 286.395 339.298 286.291 339.169 286.291C339.039 286.291 338.935 286.395 338.935 286.524C338.935 286.653 339.039 286.758 339.169 286.758Z" fill="black"/>
<path opacity="0.8" d="M340.399 286.991C340.529 286.991 340.633 286.886 340.633 286.758C340.633 286.629 340.529 286.524 340.399 286.524C340.27 286.524 340.165 286.629 340.165 286.758C340.165 286.886 340.27 286.991 340.399 286.991Z" fill="black"/>
<path opacity="0.8" d="M337.82 286.291C337.949 286.291 338.054 286.187 338.054 286.058C338.054 285.929 337.949 285.825 337.82 285.825C337.691 285.825 337.586 285.929 337.586 286.058C337.586 286.187 337.691 286.291 337.82 286.291Z" fill="black"/>
<path opacity="0.8" d="M352.793 287.09C352.922 287.09 353.027 286.985 353.027 286.856C353.027 286.727 352.922 286.623 352.793 286.623C352.663 286.623 352.559 286.727 352.559 286.856C352.559 286.985 352.663 287.09 352.793 287.09Z" fill="black"/>
<path opacity="0.8" d="M350.075 287.556C350.204 287.556 350.309 287.451 350.309 287.323C350.309 287.194 350.204 287.089 350.075 287.089C349.946 287.089 349.841 287.194 349.841 287.323C349.841 287.451 349.946 287.556 350.075 287.556Z" fill="black"/>
<path opacity="0.8" d="M347.127 287.789C347.256 287.789 347.361 287.685 347.361 287.556C347.361 287.427 347.256 287.323 347.127 287.323C346.997 287.323 346.893 287.427 346.893 287.556C346.893 287.685 346.997 287.789 347.127 287.789Z" fill="black"/>
<path opacity="0.8" d="M344.444 287.789C344.573 287.789 344.678 287.685 344.678 287.556C344.678 287.427 344.573 287.323 344.444 287.323C344.315 287.323 344.21 287.427 344.21 287.556C344.21 287.685 344.315 287.789 344.444 287.789Z" fill="black"/>
</g>
<g opacity="0.8">
<path opacity="0.8" d="M356.795 287.108C356.924 287.108 357.029 287.003 357.029 286.874C357.029 286.746 356.924 286.641 356.795 286.641C356.665 286.641 356.561 286.746 356.561 286.874C356.561 287.003 356.665 287.108 356.795 287.108Z" fill="black"/>
<path opacity="0.8" d="M355.606 287.439C355.736 287.439 355.84 287.334 355.84 287.205C355.84 287.077 355.736 286.972 355.606 286.972C355.477 286.972 355.372 287.077 355.372 287.205C355.372 287.334 355.477 287.439 355.606 287.439Z" fill="black"/>
<path opacity="0.8" d="M354.138 287.905C354.267 287.905 354.372 287.801 354.372 287.672C354.372 287.543 354.267 287.438 354.138 287.438C354.008 287.438 353.903 287.543 353.903 287.672C353.903 287.801 354.008 287.905 354.138 287.905Z" fill="black"/>
<path opacity="0.8" d="M351.504 288.47C351.633 288.47 351.738 288.365 351.738 288.237C351.738 288.108 351.633 288.003 351.504 288.003C351.374 288.003 351.27 288.108 351.27 288.237C351.27 288.365 351.374 288.47 351.504 288.47Z" fill="black"/>
<path opacity="0.8" d="M348.726 288.805C348.856 288.805 348.961 288.7 348.961 288.572C348.961 288.443 348.856 288.338 348.726 288.338C348.597 288.338 348.492 288.443 348.492 288.572C348.492 288.7 348.597 288.805 348.726 288.805Z" fill="black"/>
<path opacity="0.8" d="M345.851 288.937C345.981 288.937 346.086 288.832 346.086 288.703C346.086 288.575 345.981 288.47 345.851 288.47C345.722 288.47 345.617 288.575 345.617 288.703C345.617 288.832 345.722 288.937 345.851 288.937Z" fill="black"/>
<path opacity="0.8" d="M341.723 288.372C341.853 288.372 341.958 288.267 341.958 288.139C341.958 288.01 341.853 287.905 341.723 287.905C341.594 287.905 341.489 288.01 341.489 288.139C341.489 288.267 341.594 288.372 341.723 288.372Z" fill="black"/>
<path opacity="0.8" d="M343.091 288.703C343.22 288.703 343.325 288.599 343.325 288.47C343.325 288.341 343.22 288.237 343.091 288.237C342.961 288.237 342.856 288.341 342.856 288.47C342.856 288.599 342.961 288.703 343.091 288.703Z" fill="black"/>
<path opacity="0.8" d="M339.169 287.905C339.298 287.905 339.403 287.801 339.403 287.672C339.403 287.543 339.298 287.438 339.169 287.438C339.039 287.438 338.935 287.543 338.935 287.672C338.935 287.801 339.039 287.905 339.169 287.905Z" fill="black"/>
<path opacity="0.8" d="M340.399 288.138C340.529 288.138 340.633 288.034 340.633 287.905C340.633 287.776 340.529 287.672 340.399 287.672C340.27 287.672 340.165 287.776 340.165 287.905C340.165 288.034 340.27 288.138 340.399 288.138Z" fill="black"/>
<path opacity="0.8" d="M337.82 287.44C337.949 287.44 338.054 287.335 338.054 287.206C338.054 287.078 337.949 286.973 337.82 286.973C337.691 286.973 337.586 287.078 337.586 287.206C337.586 287.335 337.691 287.44 337.82 287.44Z" fill="black"/>
<path opacity="0.8" d="M352.793 288.237C352.922 288.237 353.027 288.133 353.027 288.004C353.027 287.875 352.922 287.771 352.793 287.771C352.663 287.771 352.559 287.875 352.559 288.004C352.559 288.133 352.663 288.237 352.793 288.237Z" fill="black"/>
<path opacity="0.8" d="M350.075 288.703C350.204 288.703 350.309 288.599 350.309 288.47C350.309 288.341 350.204 288.237 350.075 288.237C349.946 288.237 349.841 288.341 349.841 288.47C349.841 288.599 349.946 288.703 350.075 288.703Z" fill="black"/>
<path opacity="0.8" d="M347.127 288.937C347.256 288.937 347.361 288.832 347.361 288.703C347.361 288.575 347.256 288.47 347.127 288.47C346.997 288.47 346.893 288.575 346.893 288.703C346.893 288.832 346.997 288.937 347.127 288.937Z" fill="black"/>
<path opacity="0.8" d="M344.444 288.937C344.573 288.937 344.678 288.832 344.678 288.703C344.678 288.575 344.573 288.47 344.444 288.47C344.315 288.47 344.21 288.575 344.21 288.703C344.21 288.832 344.315 288.937 344.444 288.937Z" fill="black"/>
</g>
<g opacity="0.8">
<path opacity="0.8" d="M356.795 288.256C356.924 288.256 357.029 288.151 357.029 288.022C357.029 287.893 356.924 287.789 356.795 287.789C356.665 287.789 356.561 287.893 356.561 288.022C356.561 288.151 356.665 288.256 356.795 288.256Z" fill="black"/>
<path opacity="0.8" d="M355.606 288.587C355.736 288.587 355.84 288.482 355.84 288.353C355.84 288.225 355.736 288.12 355.606 288.12C355.477 288.12 355.372 288.225 355.372 288.353C355.372 288.482 355.477 288.587 355.606 288.587Z" fill="black"/>
<path opacity="0.8" d="M354.138 289.053C354.267 289.053 354.372 288.948 354.372 288.82C354.372 288.691 354.267 288.586 354.138 288.586C354.008 288.586 353.903 288.691 353.903 288.82C353.903 288.948 354.008 289.053 354.138 289.053Z" fill="black"/>
<path opacity="0.8" d="M351.504 289.618C351.633 289.618 351.738 289.513 351.738 289.385C351.738 289.256 351.633 289.151 351.504 289.151C351.374 289.151 351.27 289.256 351.27 289.385C351.27 289.513 351.374 289.618 351.504 289.618Z" fill="black"/>
<path opacity="0.8" d="M348.726 289.953C348.856 289.953 348.961 289.848 348.961 289.72C348.961 289.591 348.856 289.486 348.726 289.486C348.597 289.486 348.492 289.591 348.492 289.72C348.492 289.848 348.597 289.953 348.726 289.953Z" fill="black"/>
<path opacity="0.8" d="M345.851 290.085C345.981 290.085 346.086 289.98 346.086 289.851C346.086 289.723 345.981 289.618 345.851 289.618C345.722 289.618 345.617 289.723 345.617 289.851C345.617 289.98 345.722 290.085 345.851 290.085Z" fill="black"/>
<path opacity="0.8" d="M341.723 289.52C341.853 289.52 341.958 289.415 341.958 289.286C341.958 289.158 341.853 289.053 341.723 289.053C341.594 289.053 341.489 289.158 341.489 289.286C341.489 289.415 341.594 289.52 341.723 289.52Z" fill="black"/>
<path opacity="0.8" d="M343.091 289.851C343.22 289.851 343.325 289.747 343.325 289.618C343.325 289.489 343.22 289.385 343.091 289.385C342.961 289.385 342.856 289.489 342.856 289.618C342.856 289.747 342.961 289.851 343.091 289.851Z" fill="black"/>
<path opacity="0.8" d="M339.169 289.053C339.298 289.053 339.403 288.948 339.403 288.82C339.403 288.691 339.298 288.586 339.169 288.586C339.039 288.586 338.935 288.691 338.935 288.82C338.935 288.948 339.039 289.053 339.169 289.053Z" fill="black"/>
<path opacity="0.8" d="M340.399 289.286C340.529 289.286 340.633 289.182 340.633 289.053C340.633 288.924 340.529 288.82 340.399 288.82C340.27 288.82 340.165 288.924 340.165 289.053C340.165 289.182 340.27 289.286 340.399 289.286Z" fill="black"/>
<path opacity="0.8" d="M337.82 288.587C337.949 288.587 338.054 288.482 338.054 288.353C338.054 288.225 337.949 288.12 337.82 288.12C337.691 288.12 337.586 288.225 337.586 288.353C337.586 288.482 337.691 288.587 337.82 288.587Z" fill="black"/>
<path opacity="0.8" d="M352.793 289.385C352.922 289.385 353.027 289.28 353.027 289.152C353.027 289.023 352.922 288.918 352.793 288.918C352.663 288.918 352.559 289.023 352.559 289.152C352.559 289.28 352.663 289.385 352.793 289.385Z" fill="black"/>
<path opacity="0.8" d="M350.075 289.851C350.204 289.851 350.309 289.747 350.309 289.618C350.309 289.489 350.204 289.385 350.075 289.385C349.946 289.385 349.841 289.489 349.841 289.618C349.841 289.747 349.946 289.851 350.075 289.851Z" fill="black"/>
<path opacity="0.8" d="M347.127 290.085C347.256 290.085 347.361 289.98 347.361 289.851C347.361 289.723 347.256 289.618 347.127 289.618C346.997 289.618 346.893 289.723 346.893 289.851C346.893 289.98 346.997 290.085 347.127 290.085Z" fill="black"/>
<path opacity="0.8" d="M344.444 290.085C344.573 290.085 344.678 289.98 344.678 289.851C344.678 289.723 344.573 289.618 344.444 289.618C344.315 289.618 344.21 289.723 344.21 289.851C344.21 289.98 344.315 290.085 344.444 290.085Z" fill="black"/>
</g>
<g opacity="0.8">
<path opacity="0.8" d="M356.795 289.403C356.924 289.403 357.029 289.299 357.029 289.17C357.029 289.041 356.924 288.937 356.795 288.937C356.665 288.937 356.561 289.041 356.561 289.17C356.561 289.299 356.665 289.403 356.795 289.403Z" fill="black"/>
<path opacity="0.8" d="M355.606 289.735C355.736 289.735 355.84 289.63 355.84 289.501C355.84 289.372 355.736 289.268 355.606 289.268C355.477 289.268 355.372 289.372 355.372 289.501C355.372 289.63 355.477 289.735 355.606 289.735Z" fill="black"/>
<path opacity="0.8" d="M354.138 290.201C354.267 290.201 354.372 290.096 354.372 289.968C354.372 289.839 354.267 289.734 354.138 289.734C354.008 289.734 353.903 289.839 353.903 289.968C353.903 290.096 354.008 290.201 354.138 290.201Z" fill="black"/>
<path opacity="0.8" d="M351.504 290.766C351.633 290.766 351.738 290.661 351.738 290.533C351.738 290.404 351.633 290.299 351.504 290.299C351.374 290.299 351.27 290.404 351.27 290.533C351.27 290.661 351.374 290.766 351.504 290.766Z" fill="black"/>
<path opacity="0.8" d="M348.726 291.101C348.856 291.101 348.961 290.996 348.961 290.867C348.961 290.739 348.856 290.634 348.726 290.634C348.597 290.634 348.492 290.739 348.492 290.867C348.492 290.996 348.597 291.101 348.726 291.101Z" fill="black"/>
<path opacity="0.8" d="M345.851 291.233C345.981 291.233 346.086 291.128 346.086 290.999C346.086 290.871 345.981 290.766 345.851 290.766C345.722 290.766 345.617 290.871 345.617 290.999C345.617 291.128 345.722 291.233 345.851 291.233Z" fill="black"/>
<path opacity="0.8" d="M341.723 290.668C341.853 290.668 341.958 290.563 341.958 290.434C341.958 290.306 341.853 290.201 341.723 290.201C341.594 290.201 341.489 290.306 341.489 290.434C341.489 290.563 341.594 290.668 341.723 290.668Z" fill="black"/>
<path opacity="0.8" d="M343.091 290.999C343.22 290.999 343.325 290.895 343.325 290.766C343.325 290.637 343.22 290.533 343.091 290.533C342.961 290.533 342.856 290.637 342.856 290.766C342.856 290.895 342.961 290.999 343.091 290.999Z" fill="black"/>
<path opacity="0.8" d="M339.169 290.201C339.298 290.201 339.403 290.096 339.403 289.968C339.403 289.839 339.298 289.734 339.169 289.734C339.039 289.734 338.935 289.839 338.935 289.968C338.935 290.096 339.039 290.201 339.169 290.201Z" fill="black"/>
<path opacity="0.8" d="M340.399 290.434C340.529 290.434 340.633 290.33 340.633 290.201C340.633 290.072 340.529 289.968 340.399 289.968C340.27 289.968 340.165 290.072 340.165 290.201C340.165 290.33 340.27 290.434 340.399 290.434Z" fill="black"/>
<path opacity="0.8" d="M337.82 289.735C337.949 289.735 338.054 289.63 338.054 289.501C338.054 289.372 337.949 289.268 337.82 289.268C337.691 289.268 337.586 289.372 337.586 289.501C337.586 289.63 337.691 289.735 337.82 289.735Z" fill="black"/>
<path opacity="0.8" d="M352.793 290.533C352.922 290.533 353.027 290.428 353.027 290.3C353.027 290.171 352.922 290.066 352.793 290.066C352.663 290.066 352.559 290.171 352.559 290.3C352.559 290.428 352.663 290.533 352.793 290.533Z" fill="black"/>
<path opacity="0.8" d="M350.075 290.999C350.204 290.999 350.309 290.895 350.309 290.766C350.309 290.637 350.204 290.533 350.075 290.533C349.946 290.533 349.841 290.637 349.841 290.766C349.841 290.895 349.946 290.999 350.075 290.999Z" fill="black"/>
<path opacity="0.8" d="M347.127 291.233C347.256 291.233 347.361 291.128 347.361 290.999C347.361 290.871 347.256 290.766 347.127 290.766C346.997 290.766 346.893 290.871 346.893 290.999C346.893 291.128 346.997 291.233 347.127 291.233Z" fill="black"/>
<path opacity="0.8" d="M344.444 291.233C344.573 291.233 344.678 291.128 344.678 290.999C344.678 290.871 344.573 290.766 344.444 290.766C344.315 290.766 344.21 290.871 344.21 290.999C344.21 291.128 344.315 291.233 344.444 291.233Z" fill="black"/>
</g>
<g opacity="0.8">
<path opacity="0.8" d="M356.795 290.551C356.924 290.551 357.029 290.447 357.029 290.318C357.029 290.189 356.924 290.084 356.795 290.084C356.665 290.084 356.561 290.189 356.561 290.318C356.561 290.447 356.665 290.551 356.795 290.551Z" fill="black"/>
<path opacity="0.8" d="M355.606 290.882C355.736 290.882 355.84 290.778 355.84 290.649C355.84 290.52 355.736 290.416 355.606 290.416C355.477 290.416 355.372 290.52 355.372 290.649C355.372 290.778 355.477 290.882 355.606 290.882Z" fill="black"/>
<path opacity="0.8" d="M354.138 291.348C354.267 291.348 354.372 291.244 354.372 291.115C354.372 290.986 354.267 290.882 354.138 290.882C354.008 290.882 353.903 290.986 353.903 291.115C353.903 291.244 354.008 291.348 354.138 291.348Z" fill="black"/>
<path opacity="0.8" d="M351.504 291.913C351.633 291.913 351.738 291.809 351.738 291.68C351.738 291.551 351.633 291.447 351.504 291.447C351.374 291.447 351.27 291.551 351.27 291.68C351.27 291.809 351.374 291.913 351.504 291.913Z" fill="black"/>
<path opacity="0.8" d="M348.726 292.248C348.856 292.248 348.961 292.144 348.961 292.015C348.961 291.886 348.856 291.782 348.726 291.782C348.597 291.782 348.492 291.886 348.492 292.015C348.492 292.144 348.597 292.248 348.726 292.248Z" fill="black"/>
<path opacity="0.8" d="M345.851 292.38C345.981 292.38 346.086 292.276 346.086 292.147C346.086 292.018 345.981 291.914 345.851 291.914C345.722 291.914 345.617 292.018 345.617 292.147C345.617 292.276 345.722 292.38 345.851 292.38Z" fill="black"/>
<path opacity="0.8" d="M341.723 291.815C341.853 291.815 341.958 291.711 341.958 291.582C341.958 291.453 341.853 291.349 341.723 291.349C341.594 291.349 341.489 291.453 341.489 291.582C341.489 291.711 341.594 291.815 341.723 291.815Z" fill="black"/>
<path opacity="0.8" d="M343.091 292.147C343.22 292.147 343.325 292.042 343.325 291.913C343.325 291.785 343.22 291.68 343.091 291.68C342.961 291.68 342.856 291.785 342.856 291.913C342.856 292.042 342.961 292.147 343.091 292.147Z" fill="black"/>
<path opacity="0.8" d="M339.169 291.348C339.298 291.348 339.403 291.244 339.403 291.115C339.403 290.986 339.298 290.882 339.169 290.882C339.039 290.882 338.935 290.986 338.935 291.115C338.935 291.244 339.039 291.348 339.169 291.348Z" fill="black"/>
<path opacity="0.8" d="M340.399 291.582C340.529 291.582 340.633 291.477 340.633 291.348C340.633 291.22 340.529 291.115 340.399 291.115C340.27 291.115 340.165 291.22 340.165 291.348C340.165 291.477 340.27 291.582 340.399 291.582Z" fill="black"/>
<path opacity="0.8" d="M337.82 290.882C337.949 290.882 338.054 290.778 338.054 290.649C338.054 290.52 337.949 290.416 337.82 290.416C337.691 290.416 337.586 290.52 337.586 290.649C337.586 290.778 337.691 290.882 337.82 290.882Z" fill="black"/>
<path opacity="0.8" d="M352.793 291.68C352.922 291.68 353.027 291.576 353.027 291.447C353.027 291.318 352.922 291.214 352.793 291.214C352.663 291.214 352.559 291.318 352.559 291.447C352.559 291.576 352.663 291.68 352.793 291.68Z" fill="black"/>
<path opacity="0.8" d="M350.075 292.147C350.204 292.147 350.309 292.042 350.309 291.913C350.309 291.785 350.204 291.68 350.075 291.68C349.946 291.68 349.841 291.785 349.841 291.913C349.841 292.042 349.946 292.147 350.075 292.147Z" fill="black"/>
<path opacity="0.8" d="M347.127 292.38C347.256 292.38 347.361 292.276 347.361 292.147C347.361 292.018 347.256 291.914 347.127 291.914C346.997 291.914 346.893 292.018 346.893 292.147C346.893 292.276 346.997 292.38 347.127 292.38Z" fill="black"/>
<path opacity="0.8" d="M344.444 292.38C344.573 292.38 344.678 292.276 344.678 292.147C344.678 292.018 344.573 291.914 344.444 291.914C344.315 291.914 344.21 292.018 344.21 292.147C344.21 292.276 344.315 292.38 344.444 292.38Z" fill="black"/>
</g>
<g opacity="0.8">
<path opacity="0.8" d="M356.795 291.699C356.924 291.699 357.029 291.594 357.029 291.466C357.029 291.337 356.924 291.232 356.795 291.232C356.665 291.232 356.561 291.337 356.561 291.466C356.561 291.594 356.665 291.699 356.795 291.699Z" fill="black"/>
<path opacity="0.8" d="M355.606 292.03C355.736 292.03 355.84 291.925 355.84 291.797C355.84 291.668 355.736 291.563 355.606 291.563C355.477 291.563 355.372 291.668 355.372 291.797C355.372 291.925 355.477 292.03 355.606 292.03Z" fill="black"/>
<path opacity="0.8" d="M354.138 292.496C354.267 292.496 354.372 292.392 354.372 292.263C354.372 292.134 354.267 292.03 354.138 292.03C354.008 292.03 353.903 292.134 353.903 292.263C353.903 292.392 354.008 292.496 354.138 292.496Z" fill="black"/>
<path opacity="0.8" d="M351.504 293.061C351.633 293.061 351.738 292.957 351.738 292.828C351.738 292.699 351.633 292.595 351.504 292.595C351.374 292.595 351.27 292.699 351.27 292.828C351.27 292.957 351.374 293.061 351.504 293.061Z" fill="black"/>
<path opacity="0.8" d="M348.726 293.396C348.856 293.396 348.961 293.292 348.961 293.163C348.961 293.034 348.856 292.93 348.726 292.93C348.597 292.93 348.492 293.034 348.492 293.163C348.492 293.292 348.597 293.396 348.726 293.396Z" fill="black"/>
<path opacity="0.8" d="M345.851 293.528C345.981 293.528 346.086 293.424 346.086 293.295C346.086 293.166 345.981 293.062 345.851 293.062C345.722 293.062 345.617 293.166 345.617 293.295C345.617 293.424 345.722 293.528 345.851 293.528Z" fill="black"/>
<path opacity="0.8" d="M341.723 292.963C341.853 292.963 341.958 292.858 341.958 292.729C341.958 292.601 341.853 292.496 341.723 292.496C341.594 292.496 341.489 292.601 341.489 292.729C341.489 292.858 341.594 292.963 341.723 292.963Z" fill="black"/>
<path opacity="0.8" d="M343.091 293.295C343.22 293.295 343.325 293.19 343.325 293.061C343.325 292.933 343.22 292.828 343.091 292.828C342.961 292.828 342.856 292.933 342.856 293.061C342.856 293.19 342.961 293.295 343.091 293.295Z" fill="black"/>
<path opacity="0.8" d="M339.169 292.496C339.298 292.496 339.403 292.392 339.403 292.263C339.403 292.134 339.298 292.03 339.169 292.03C339.039 292.03 338.935 292.134 338.935 292.263C338.935 292.392 339.039 292.496 339.169 292.496Z" fill="black"/>
<path opacity="0.8" d="M340.399 292.73C340.529 292.73 340.633 292.625 340.633 292.496C340.633 292.368 340.529 292.263 340.399 292.263C340.27 292.263 340.165 292.368 340.165 292.496C340.165 292.625 340.27 292.73 340.399 292.73Z" fill="black"/>
<path opacity="0.8" d="M337.82 292.03C337.949 292.03 338.054 291.925 338.054 291.797C338.054 291.668 337.949 291.563 337.82 291.563C337.691 291.563 337.586 291.668 337.586 291.797C337.586 291.925 337.691 292.03 337.82 292.03Z" fill="black"/>
<path opacity="0.8" d="M352.793 292.828C352.922 292.828 353.027 292.724 353.027 292.595C353.027 292.466 352.922 292.362 352.793 292.362C352.663 292.362 352.559 292.466 352.559 292.595C352.559 292.724 352.663 292.828 352.793 292.828Z" fill="black"/>
<path opacity="0.8" d="M350.075 293.295C350.204 293.295 350.309 293.19 350.309 293.061C350.309 292.933 350.204 292.828 350.075 292.828C349.946 292.828 349.841 292.933 349.841 293.061C349.841 293.19 349.946 293.295 350.075 293.295Z" fill="black"/>
<path opacity="0.8" d="M347.127 293.528C347.256 293.528 347.361 293.424 347.361 293.295C347.361 293.166 347.256 293.062 347.127 293.062C346.997 293.062 346.893 293.166 346.893 293.295C346.893 293.424 346.997 293.528 347.127 293.528Z" fill="black"/>
<path opacity="0.8" d="M344.444 293.528C344.573 293.528 344.678 293.424 344.678 293.295C344.678 293.166 344.573 293.062 344.444 293.062C344.315 293.062 344.21 293.166 344.21 293.295C344.21 293.424 344.315 293.528 344.444 293.528Z" fill="black"/>
</g>
<g opacity="0.8">
<path opacity="0.8" d="M356.795 292.847C356.924 292.847 357.029 292.742 357.029 292.614C357.029 292.485 356.924 292.38 356.795 292.38C356.665 292.38 356.561 292.485 356.561 292.614C356.561 292.742 356.665 292.847 356.795 292.847Z" fill="black"/>
<path opacity="0.8" d="M355.606 293.178C355.736 293.178 355.84 293.073 355.84 292.945C355.84 292.816 355.736 292.711 355.606 292.711C355.477 292.711 355.372 292.816 355.372 292.945C355.372 293.073 355.477 293.178 355.606 293.178Z" fill="black"/>
<path opacity="0.8" d="M354.138 293.644C354.267 293.644 354.372 293.54 354.372 293.411C354.372 293.282 354.267 293.178 354.138 293.178C354.008 293.178 353.903 293.282 353.903 293.411C353.903 293.54 354.008 293.644 354.138 293.644Z" fill="black"/>
<path opacity="0.8" d="M351.504 294.209C351.633 294.209 351.738 294.105 351.738 293.976C351.738 293.847 351.633 293.743 351.504 293.743C351.374 293.743 351.27 293.847 351.27 293.976C351.27 294.105 351.374 294.209 351.504 294.209Z" fill="black"/>
<path opacity="0.8" d="M348.726 294.544C348.856 294.544 348.961 294.44 348.961 294.311C348.961 294.182 348.856 294.078 348.726 294.078C348.597 294.078 348.492 294.182 348.492 294.311C348.492 294.44 348.597 294.544 348.726 294.544Z" fill="black"/>
<path opacity="0.8" d="M345.851 294.676C345.981 294.676 346.086 294.572 346.086 294.443C346.086 294.314 345.981 294.209 345.851 294.209C345.722 294.209 345.617 294.314 345.617 294.443C345.617 294.572 345.722 294.676 345.851 294.676Z" fill="black"/>
<path opacity="0.8" d="M341.723 294.111C341.853 294.111 341.958 294.007 341.958 293.878C341.958 293.749 341.853 293.645 341.723 293.645C341.594 293.645 341.489 293.749 341.489 293.878C341.489 294.007 341.594 294.111 341.723 294.111Z" fill="black"/>
<path opacity="0.8" d="M343.091 294.443C343.22 294.443 343.325 294.338 343.325 294.209C343.325 294.08 343.22 293.976 343.091 293.976C342.961 293.976 342.856 294.08 342.856 294.209C342.856 294.338 342.961 294.443 343.091 294.443Z" fill="black"/>
<path opacity="0.8" d="M339.169 293.644C339.298 293.644 339.403 293.54 339.403 293.411C339.403 293.282 339.298 293.178 339.169 293.178C339.039 293.178 338.935 293.282 338.935 293.411C338.935 293.54 339.039 293.644 339.169 293.644Z" fill="black"/>
<path opacity="0.8" d="M340.399 293.878C340.529 293.878 340.633 293.773 340.633 293.644C340.633 293.516 340.529 293.411 340.399 293.411C340.27 293.411 340.165 293.516 340.165 293.644C340.165 293.773 340.27 293.878 340.399 293.878Z" fill="black"/>
<path opacity="0.8" d="M337.82 293.178C337.949 293.178 338.054 293.073 338.054 292.945C338.054 292.816 337.949 292.711 337.82 292.711C337.691 292.711 337.586 292.816 337.586 292.945C337.586 293.073 337.691 293.178 337.82 293.178Z" fill="black"/>
<path opacity="0.8" d="M352.793 293.976C352.922 293.976 353.027 293.872 353.027 293.743C353.027 293.614 352.922 293.51 352.793 293.51C352.663 293.51 352.559 293.614 352.559 293.743C352.559 293.872 352.663 293.976 352.793 293.976Z" fill="black"/>
<path opacity="0.8" d="M350.075 294.443C350.204 294.443 350.309 294.338 350.309 294.209C350.309 294.08 350.204 293.976 350.075 293.976C349.946 293.976 349.841 294.08 349.841 294.209C349.841 294.338 349.946 294.443 350.075 294.443Z" fill="black"/>
<path opacity="0.8" d="M347.127 294.676C347.256 294.676 347.361 294.572 347.361 294.443C347.361 294.314 347.256 294.209 347.127 294.209C346.997 294.209 346.893 294.314 346.893 294.443C346.893 294.572 346.997 294.676 347.127 294.676Z" fill="black"/>
<path opacity="0.8" d="M344.444 294.676C344.573 294.676 344.678 294.572 344.678 294.443C344.678 294.314 344.573 294.209 344.444 294.209C344.315 294.209 344.21 294.314 344.21 294.443C344.21 294.572 344.315 294.676 344.444 294.676Z" fill="black"/>
</g>
<g opacity="0.8">
<path opacity="0.8" d="M356.795 293.994C356.924 293.994 357.029 293.89 357.029 293.761C357.029 293.632 356.924 293.528 356.795 293.528C356.665 293.528 356.561 293.632 356.561 293.761C356.561 293.89 356.665 293.994 356.795 293.994Z" fill="black"/>
<path opacity="0.8" d="M355.606 294.325C355.736 294.325 355.84 294.221 355.84 294.092C355.84 293.963 355.736 293.859 355.606 293.859C355.477 293.859 355.372 293.963 355.372 294.092C355.372 294.221 355.477 294.325 355.606 294.325Z" fill="black"/>
<path opacity="0.8" d="M354.138 294.792C354.267 294.792 354.372 294.687 354.372 294.558C354.372 294.43 354.267 294.325 354.138 294.325C354.008 294.325 353.903 294.43 353.903 294.558C353.903 294.687 354.008 294.792 354.138 294.792Z" fill="black"/>
<path opacity="0.8" d="M351.504 295.357C351.633 295.357 351.738 295.252 351.738 295.123C351.738 294.995 351.633 294.89 351.504 294.89C351.374 294.89 351.27 294.995 351.27 295.123C351.27 295.252 351.374 295.357 351.504 295.357Z" fill="black"/>
<path opacity="0.8" d="M348.726 295.692C348.856 295.692 348.961 295.587 348.961 295.458C348.961 295.33 348.856 295.225 348.726 295.225C348.597 295.225 348.492 295.33 348.492 295.458C348.492 295.587 348.597 295.692 348.726 295.692Z" fill="black"/>
<path opacity="0.8" d="M345.851 295.823C345.981 295.823 346.086 295.719 346.086 295.59C346.086 295.461 345.981 295.357 345.851 295.357C345.722 295.357 345.617 295.461 345.617 295.59C345.617 295.719 345.722 295.823 345.851 295.823Z" fill="black"/>
<path opacity="0.8" d="M341.723 295.258C341.853 295.258 341.958 295.154 341.958 295.025C341.958 294.896 341.853 294.792 341.723 294.792C341.594 294.792 341.489 294.896 341.489 295.025C341.489 295.154 341.594 295.258 341.723 295.258Z" fill="black"/>
<path opacity="0.8" d="M343.091 295.59C343.22 295.59 343.325 295.486 343.325 295.357C343.325 295.228 343.22 295.124 343.091 295.124C342.961 295.124 342.856 295.228 342.856 295.357C342.856 295.486 342.961 295.59 343.091 295.59Z" fill="black"/>
<path opacity="0.8" d="M339.169 294.792C339.298 294.792 339.403 294.687 339.403 294.558C339.403 294.43 339.298 294.325 339.169 294.325C339.039 294.325 338.935 294.43 338.935 294.558C338.935 294.687 339.039 294.792 339.169 294.792Z" fill="black"/>
<path opacity="0.8" d="M340.399 295.025C340.529 295.025 340.633 294.921 340.633 294.792C340.633 294.663 340.529 294.559 340.399 294.559C340.27 294.559 340.165 294.663 340.165 294.792C340.165 294.921 340.27 295.025 340.399 295.025Z" fill="black"/>
<path opacity="0.8" d="M337.82 294.325C337.949 294.325 338.054 294.221 338.054 294.092C338.054 293.963 337.949 293.859 337.82 293.859C337.691 293.859 337.586 293.963 337.586 294.092C337.586 294.221 337.691 294.325 337.82 294.325Z" fill="black"/>
<path opacity="0.8" d="M352.793 295.124C352.922 295.124 353.027 295.019 353.027 294.89C353.027 294.762 352.922 294.657 352.793 294.657C352.663 294.657 352.559 294.762 352.559 294.89C352.559 295.019 352.663 295.124 352.793 295.124Z" fill="black"/>
<path opacity="0.8" d="M350.075 295.59C350.204 295.59 350.309 295.486 350.309 295.357C350.309 295.228 350.204 295.124 350.075 295.124C349.946 295.124 349.841 295.228 349.841 295.357C349.841 295.486 349.946 295.59 350.075 295.59Z" fill="black"/>
<path opacity="0.8" d="M347.127 295.823C347.256 295.823 347.361 295.719 347.361 295.59C347.361 295.461 347.256 295.357 347.127 295.357C346.997 295.357 346.893 295.461 346.893 295.59C346.893 295.719 346.997 295.823 347.127 295.823Z" fill="black"/>
<path opacity="0.8" d="M344.444 295.823C344.573 295.823 344.678 295.719 344.678 295.59C344.678 295.461 344.573 295.357 344.444 295.357C344.315 295.357 344.21 295.461 344.21 295.59C344.21 295.719 344.315 295.823 344.444 295.823Z" fill="black"/>
</g>
<g opacity="0.8">
<path opacity="0.8" d="M356.795 295.142C356.924 295.142 357.029 295.038 357.029 294.909C357.029 294.78 356.924 294.676 356.795 294.676C356.665 294.676 356.561 294.78 356.561 294.909C356.561 295.038 356.665 295.142 356.795 295.142Z" fill="black"/>
<path opacity="0.8" d="M355.606 295.473C355.736 295.473 355.84 295.369 355.84 295.24C355.84 295.111 355.736 295.007 355.606 295.007C355.477 295.007 355.372 295.111 355.372 295.24C355.372 295.369 355.477 295.473 355.606 295.473Z" fill="black"/>
<path opacity="0.8" d="M354.138 295.94C354.267 295.94 354.372 295.835 354.372 295.706C354.372 295.578 354.267 295.473 354.138 295.473C354.008 295.473 353.903 295.578 353.903 295.706C353.903 295.835 354.008 295.94 354.138 295.94Z" fill="black"/>
<path opacity="0.8" d="M351.504 296.505C351.633 296.505 351.738 296.4 351.738 296.271C351.738 296.142 351.633 296.038 351.504 296.038C351.374 296.038 351.27 296.142 351.27 296.271C351.27 296.4 351.374 296.505 351.504 296.505Z" fill="black"/>
<path opacity="0.8" d="M348.726 296.84C348.856 296.84 348.961 296.735 348.961 296.606C348.961 296.477 348.856 296.373 348.726 296.373C348.597 296.373 348.492 296.477 348.492 296.606C348.492 296.735 348.597 296.84 348.726 296.84Z" fill="black"/>
<path opacity="0.8" d="M345.851 296.971C345.981 296.971 346.086 296.867 346.086 296.738C346.086 296.609 345.981 296.505 345.851 296.505C345.722 296.505 345.617 296.609 345.617 296.738C345.617 296.867 345.722 296.971 345.851 296.971Z" fill="black"/>
<path opacity="0.8" d="M341.723 296.406C341.853 296.406 341.958 296.302 341.958 296.173C341.958 296.044 341.853 295.94 341.723 295.94C341.594 295.94 341.489 296.044 341.489 296.173C341.489 296.302 341.594 296.406 341.723 296.406Z" fill="black"/>
<path opacity="0.8" d="M343.091 296.738C343.22 296.738 343.325 296.634 343.325 296.505C343.325 296.376 343.22 296.271 343.091 296.271C342.961 296.271 342.856 296.376 342.856 296.505C342.856 296.634 342.961 296.738 343.091 296.738Z" fill="black"/>
<path opacity="0.8" d="M339.169 295.94C339.298 295.94 339.403 295.835 339.403 295.706C339.403 295.578 339.298 295.473 339.169 295.473C339.039 295.473 338.935 295.578 338.935 295.706C338.935 295.835 339.039 295.94 339.169 295.94Z" fill="black"/>
<path opacity="0.8" d="M340.399 296.173C340.529 296.173 340.633 296.069 340.633 295.94C340.633 295.811 340.529 295.707 340.399 295.707C340.27 295.707 340.165 295.811 340.165 295.94C340.165 296.069 340.27 296.173 340.399 296.173Z" fill="black"/>
<path opacity="0.8" d="M337.82 295.473C337.949 295.473 338.054 295.369 338.054 295.24C338.054 295.111 337.949 295.007 337.82 295.007C337.691 295.007 337.586 295.111 337.586 295.24C337.586 295.369 337.691 295.473 337.82 295.473Z" fill="black"/>
<path opacity="0.8" d="M352.793 296.272C352.922 296.272 353.027 296.167 353.027 296.038C353.027 295.91 352.922 295.805 352.793 295.805C352.663 295.805 352.559 295.91 352.559 296.038C352.559 296.167 352.663 296.272 352.793 296.272Z" fill="black"/>
<path opacity="0.8" d="M350.075 296.738C350.204 296.738 350.309 296.634 350.309 296.505C350.309 296.376 350.204 296.271 350.075 296.271C349.946 296.271 349.841 296.376 349.841 296.505C349.841 296.634 349.946 296.738 350.075 296.738Z" fill="black"/>
<path opacity="0.8" d="M347.127 296.971C347.256 296.971 347.361 296.867 347.361 296.738C347.361 296.609 347.256 296.505 347.127 296.505C346.997 296.505 346.893 296.609 346.893 296.738C346.893 296.867 346.997 296.971 347.127 296.971Z" fill="black"/>
<path opacity="0.8" d="M344.444 296.971C344.573 296.971 344.678 296.867 344.678 296.738C344.678 296.609 344.573 296.505 344.444 296.505C344.315 296.505 344.21 296.609 344.21 296.738C344.21 296.867 344.315 296.971 344.444 296.971Z" fill="black"/>
</g>
<g opacity="0.8">
<path opacity="0.8" d="M356.795 296.29C356.924 296.29 357.029 296.186 357.029 296.057C357.029 295.928 356.924 295.824 356.795 295.824C356.665 295.824 356.561 295.928 356.561 296.057C356.561 296.186 356.665 296.29 356.795 296.29Z" fill="black"/>
<path opacity="0.8" d="M355.606 296.621C355.736 296.621 355.84 296.517 355.84 296.388C355.84 296.259 355.736 296.155 355.606 296.155C355.477 296.155 355.372 296.259 355.372 296.388C355.372 296.517 355.477 296.621 355.606 296.621Z" fill="black"/>
<path opacity="0.8" d="M354.138 297.088C354.267 297.088 354.372 296.983 354.372 296.854C354.372 296.726 354.267 296.621 354.138 296.621C354.008 296.621 353.903 296.726 353.903 296.854C353.903 296.983 354.008 297.088 354.138 297.088Z" fill="black"/>
<path opacity="0.8" d="M351.504 297.653C351.633 297.653 351.738 297.548 351.738 297.419C351.738 297.29 351.633 297.186 351.504 297.186C351.374 297.186 351.27 297.29 351.27 297.419C351.27 297.548 351.374 297.653 351.504 297.653Z" fill="black"/>
<path opacity="0.8" d="M348.726 297.987C348.856 297.987 348.961 297.883 348.961 297.754C348.961 297.625 348.856 297.521 348.726 297.521C348.597 297.521 348.492 297.625 348.492 297.754C348.492 297.883 348.597 297.987 348.726 297.987Z" fill="black"/>
<path opacity="0.8" d="M345.851 298.119C345.981 298.119 346.086 298.015 346.086 297.886C346.086 297.757 345.981 297.653 345.851 297.653C345.722 297.653 345.617 297.757 345.617 297.886C345.617 298.015 345.722 298.119 345.851 298.119Z" fill="black"/>
<path opacity="0.8" d="M341.723 297.554C341.853 297.554 341.958 297.45 341.958 297.321C341.958 297.192 341.853 297.088 341.723 297.088C341.594 297.088 341.489 297.192 341.489 297.321C341.489 297.45 341.594 297.554 341.723 297.554Z" fill="black"/>
<path opacity="0.8" d="M343.091 297.886C343.22 297.886 343.325 297.781 343.325 297.653C343.325 297.524 343.22 297.419 343.091 297.419C342.961 297.419 342.856 297.524 342.856 297.653C342.856 297.781 342.961 297.886 343.091 297.886Z" fill="black"/>
<path opacity="0.8" d="M339.169 297.088C339.298 297.088 339.403 296.983 339.403 296.854C339.403 296.726 339.298 296.621 339.169 296.621C339.039 296.621 338.935 296.726 338.935 296.854C338.935 296.983 339.039 297.088 339.169 297.088Z" fill="black"/>
<path opacity="0.8" d="M340.399 297.321C340.529 297.321 340.633 297.217 340.633 297.088C340.633 296.959 340.529 296.854 340.399 296.854C340.27 296.854 340.165 296.959 340.165 297.088C340.165 297.217 340.27 297.321 340.399 297.321Z" fill="black"/>
<path opacity="0.8" d="M337.82 296.621C337.949 296.621 338.054 296.517 338.054 296.388C338.054 296.259 337.949 296.155 337.82 296.155C337.691 296.155 337.586 296.259 337.586 296.388C337.586 296.517 337.691 296.621 337.82 296.621Z" fill="black"/>
<path opacity="0.8" d="M352.793 297.42C352.922 297.42 353.027 297.315 353.027 297.186C353.027 297.058 352.922 296.953 352.793 296.953C352.663 296.953 352.559 297.058 352.559 297.186C352.559 297.315 352.663 297.42 352.793 297.42Z" fill="black"/>
<path opacity="0.8" d="M350.075 297.886C350.204 297.886 350.309 297.781 350.309 297.653C350.309 297.524 350.204 297.419 350.075 297.419C349.946 297.419 349.841 297.524 349.841 297.653C349.841 297.781 349.946 297.886 350.075 297.886Z" fill="black"/>
<path opacity="0.8" d="M347.127 298.119C347.256 298.119 347.361 298.015 347.361 297.886C347.361 297.757 347.256 297.653 347.127 297.653C346.997 297.653 346.893 297.757 346.893 297.886C346.893 298.015 346.997 298.119 347.127 298.119Z" fill="black"/>
<path opacity="0.8" d="M344.444 298.119C344.573 298.119 344.678 298.015 344.678 297.886C344.678 297.757 344.573 297.653 344.444 297.653C344.315 297.653 344.21 297.757 344.21 297.886C344.21 298.015 344.315 298.119 344.444 298.119Z" fill="black"/>
</g>
<g opacity="0.8">
<path opacity="0.8" d="M356.795 297.438C356.924 297.438 357.029 297.333 357.029 297.204C357.029 297.076 356.924 296.971 356.795 296.971C356.665 296.971 356.561 297.076 356.561 297.204C356.561 297.333 356.665 297.438 356.795 297.438Z" fill="black"/>
<path opacity="0.8" d="M355.606 297.769C355.736 297.769 355.84 297.664 355.84 297.535C355.84 297.407 355.736 297.302 355.606 297.302C355.477 297.302 355.372 297.407 355.372 297.535C355.372 297.664 355.477 297.769 355.606 297.769Z" fill="black"/>
<path opacity="0.8" d="M354.138 298.235C354.267 298.235 354.372 298.131 354.372 298.002C354.372 297.873 354.267 297.769 354.138 297.769C354.008 297.769 353.903 297.873 353.903 298.002C353.903 298.131 354.008 298.235 354.138 298.235Z" fill="black"/>
<path opacity="0.8" d="M351.504 298.8C351.633 298.8 351.738 298.696 351.738 298.567C351.738 298.438 351.633 298.333 351.504 298.333C351.374 298.333 351.27 298.438 351.27 298.567C351.27 298.696 351.374 298.8 351.504 298.8Z" fill="black"/>
<path opacity="0.8" d="M348.726 299.135C348.856 299.135 348.961 299.031 348.961 298.902C348.961 298.773 348.856 298.668 348.726 298.668C348.597 298.668 348.492 298.773 348.492 298.902C348.492 299.031 348.597 299.135 348.726 299.135Z" fill="black"/>
<path opacity="0.8" d="M345.851 299.267C345.981 299.267 346.086 299.162 346.086 299.034C346.086 298.905 345.981 298.8 345.851 298.8C345.722 298.8 345.617 298.905 345.617 299.034C345.617 299.162 345.722 299.267 345.851 299.267Z" fill="black"/>
<path opacity="0.8" d="M341.723 298.702C341.853 298.702 341.958 298.597 341.958 298.469C341.958 298.34 341.853 298.235 341.723 298.235C341.594 298.235 341.489 298.34 341.489 298.469C341.489 298.597 341.594 298.702 341.723 298.702Z" fill="black"/>
<path opacity="0.8" d="M343.091 299.033C343.22 299.033 343.325 298.929 343.325 298.8C343.325 298.671 343.22 298.567 343.091 298.567C342.961 298.567 342.856 298.671 342.856 298.8C342.856 298.929 342.961 299.033 343.091 299.033Z" fill="black"/>
<path opacity="0.8" d="M339.169 298.235C339.298 298.235 339.403 298.131 339.403 298.002C339.403 297.873 339.298 297.769 339.169 297.769C339.039 297.769 338.935 297.873 338.935 298.002C338.935 298.131 339.039 298.235 339.169 298.235Z" fill="black"/>
<path opacity="0.8" d="M340.399 298.468C340.529 298.468 340.633 298.364 340.633 298.235C340.633 298.106 340.529 298.002 340.399 298.002C340.27 298.002 340.165 298.106 340.165 298.235C340.165 298.364 340.27 298.468 340.399 298.468Z" fill="black"/>
<path opacity="0.8" d="M337.82 297.769C337.949 297.769 338.054 297.664 338.054 297.535C338.054 297.407 337.949 297.302 337.82 297.302C337.691 297.302 337.586 297.407 337.586 297.535C337.586 297.664 337.691 297.769 337.82 297.769Z" fill="black"/>
<path opacity="0.8" d="M352.793 298.567C352.922 298.567 353.027 298.463 353.027 298.334C353.027 298.205 352.922 298.101 352.793 298.101C352.663 298.101 352.559 298.205 352.559 298.334C352.559 298.463 352.663 298.567 352.793 298.567Z" fill="black"/>
<path opacity="0.8" d="M350.075 299.033C350.204 299.033 350.309 298.929 350.309 298.8C350.309 298.671 350.204 298.567 350.075 298.567C349.946 298.567 349.841 298.671 349.841 298.8C349.841 298.929 349.946 299.033 350.075 299.033Z" fill="black"/>
<path opacity="0.8" d="M347.127 299.267C347.256 299.267 347.361 299.162 347.361 299.034C347.361 298.905 347.256 298.8 347.127 298.8C346.997 298.8 346.893 298.905 346.893 299.034C346.893 299.162 346.997 299.267 347.127 299.267Z" fill="black"/>
<path opacity="0.8" d="M344.444 299.267C344.573 299.267 344.678 299.162 344.678 299.034C344.678 298.905 344.573 298.8 344.444 298.8C344.315 298.8 344.21 298.905 344.21 299.034C344.21 299.162 344.315 299.267 344.444 299.267Z" fill="black"/>
</g>
<g opacity="0.8">
<path opacity="0.8" d="M356.795 298.586C356.924 298.586 357.029 298.481 357.029 298.352C357.029 298.224 356.924 298.119 356.795 298.119C356.665 298.119 356.561 298.224 356.561 298.352C356.561 298.481 356.665 298.586 356.795 298.586Z" fill="black"/>
<path opacity="0.8" d="M355.606 298.917C355.736 298.917 355.84 298.812 355.84 298.683C355.84 298.555 355.736 298.45 355.606 298.45C355.477 298.45 355.372 298.555 355.372 298.683C355.372 298.812 355.477 298.917 355.606 298.917Z" fill="black"/>
<path opacity="0.8" d="M354.138 299.383C354.267 299.383 354.372 299.279 354.372 299.15C354.372 299.021 354.267 298.917 354.138 298.917C354.008 298.917 353.903 299.021 353.903 299.15C353.903 299.279 354.008 299.383 354.138 299.383Z" fill="black"/>
<path opacity="0.8" d="M351.504 299.948C351.633 299.948 351.738 299.844 351.738 299.715C351.738 299.586 351.633 299.481 351.504 299.481C351.374 299.481 351.27 299.586 351.27 299.715C351.27 299.844 351.374 299.948 351.504 299.948Z" fill="black"/>
<path opacity="0.8" d="M348.726 300.283C348.856 300.283 348.961 300.178 348.961 300.05C348.961 299.921 348.856 299.816 348.726 299.816C348.597 299.816 348.492 299.921 348.492 300.05C348.492 300.178 348.597 300.283 348.726 300.283Z" fill="black"/>
<path opacity="0.8" d="M345.851 300.415C345.981 300.415 346.086 300.31 346.086 300.181C346.086 300.053 345.981 299.948 345.851 299.948C345.722 299.948 345.617 300.053 345.617 300.181C345.617 300.31 345.722 300.415 345.851 300.415Z" fill="black"/>
<path opacity="0.8" d="M341.723 299.849C341.853 299.849 341.958 299.745 341.958 299.616C341.958 299.487 341.853 299.383 341.723 299.383C341.594 299.383 341.489 299.487 341.489 299.616C341.489 299.745 341.594 299.849 341.723 299.849Z" fill="black"/>
<path opacity="0.8" d="M343.091 300.181C343.22 300.181 343.325 300.077 343.325 299.948C343.325 299.819 343.22 299.715 343.091 299.715C342.961 299.715 342.856 299.819 342.856 299.948C342.856 300.077 342.961 300.181 343.091 300.181Z" fill="black"/>
<path opacity="0.8" d="M339.169 299.383C339.298 299.383 339.403 299.279 339.403 299.15C339.403 299.021 339.298 298.917 339.169 298.917C339.039 298.917 338.935 299.021 338.935 299.15C338.935 299.279 339.039 299.383 339.169 299.383Z" fill="black"/>
<path opacity="0.8" d="M340.399 299.616C340.529 299.616 340.633 299.512 340.633 299.383C340.633 299.254 340.529 299.15 340.399 299.15C340.27 299.15 340.165 299.254 340.165 299.383C340.165 299.512 340.27 299.616 340.399 299.616Z" fill="black"/>
<path opacity="0.8" d="M337.82 298.917C337.949 298.917 338.054 298.812 338.054 298.683C338.054 298.555 337.949 298.45 337.82 298.45C337.691 298.45 337.586 298.555 337.586 298.683C337.586 298.812 337.691 298.917 337.82 298.917Z" fill="black"/>
<path opacity="0.8" d="M352.793 299.715C352.922 299.715 353.027 299.611 353.027 299.482C353.027 299.353 352.922 299.249 352.793 299.249C352.663 299.249 352.559 299.353 352.559 299.482C352.559 299.611 352.663 299.715 352.793 299.715Z" fill="black"/>
<path opacity="0.8" d="M350.075 300.181C350.204 300.181 350.309 300.077 350.309 299.948C350.309 299.819 350.204 299.715 350.075 299.715C349.946 299.715 349.841 299.819 349.841 299.948C349.841 300.077 349.946 300.181 350.075 300.181Z" fill="black"/>
<path opacity="0.8" d="M347.127 300.415C347.256 300.415 347.361 300.31 347.361 300.181C347.361 300.053 347.256 299.948 347.127 299.948C346.997 299.948 346.893 300.053 346.893 300.181C346.893 300.31 346.997 300.415 347.127 300.415Z" fill="black"/>
<path opacity="0.8" d="M344.444 300.415C344.573 300.415 344.678 300.31 344.678 300.181C344.678 300.053 344.573 299.948 344.444 299.948C344.315 299.948 344.21 300.053 344.21 300.181C344.21 300.31 344.315 300.415 344.444 300.415Z" fill="black"/>
</g>
<g opacity="0.8">
<path opacity="0.8" d="M356.795 299.733C356.924 299.733 357.029 299.629 357.029 299.5C357.029 299.371 356.924 299.267 356.795 299.267C356.665 299.267 356.561 299.371 356.561 299.5C356.561 299.629 356.665 299.733 356.795 299.733Z" fill="black"/>
<path opacity="0.8" d="M355.606 300.064C355.736 300.064 355.84 299.96 355.84 299.831C355.84 299.702 355.736 299.598 355.606 299.598C355.477 299.598 355.372 299.702 355.372 299.831C355.372 299.96 355.477 300.064 355.606 300.064Z" fill="black"/>
<path opacity="0.8" d="M354.138 300.53C354.267 300.53 354.372 300.426 354.372 300.297C354.372 300.168 354.267 300.064 354.138 300.064C354.008 300.064 353.903 300.168 353.903 300.297C353.903 300.426 354.008 300.53 354.138 300.53Z" fill="black"/>
<path opacity="0.8" d="M351.504 301.095C351.633 301.095 351.738 300.991 351.738 300.862C351.738 300.733 351.633 300.629 351.504 300.629C351.374 300.629 351.27 300.733 351.27 300.862C351.27 300.991 351.374 301.095 351.504 301.095Z" fill="black"/>
<path opacity="0.8" d="M348.726 301.43C348.856 301.43 348.961 301.326 348.961 301.197C348.961 301.068 348.856 300.964 348.726 300.964C348.597 300.964 348.492 301.068 348.492 301.197C348.492 301.326 348.597 301.43 348.726 301.43Z" fill="black"/>
<path opacity="0.8" d="M345.851 301.562C345.981 301.562 346.086 301.458 346.086 301.329C346.086 301.2 345.981 301.096 345.851 301.096C345.722 301.096 345.617 301.2 345.617 301.329C345.617 301.458 345.722 301.562 345.851 301.562Z" fill="black"/>
<path opacity="0.8" d="M341.723 300.997C341.853 300.997 341.958 300.893 341.958 300.764C341.958 300.635 341.853 300.531 341.723 300.531C341.594 300.531 341.489 300.635 341.489 300.764C341.489 300.893 341.594 300.997 341.723 300.997Z" fill="black"/>
<path opacity="0.8" d="M343.091 301.329C343.22 301.329 343.325 301.224 343.325 301.096C343.325 300.967 343.22 300.862 343.091 300.862C342.961 300.862 342.856 300.967 342.856 301.096C342.856 301.224 342.961 301.329 343.091 301.329Z" fill="black"/>
<path opacity="0.8" d="M339.169 300.53C339.298 300.53 339.403 300.426 339.403 300.297C339.403 300.168 339.298 300.064 339.169 300.064C339.039 300.064 338.935 300.168 338.935 300.297C338.935 300.426 339.039 300.53 339.169 300.53Z" fill="black"/>
<path opacity="0.8" d="M340.399 300.764C340.529 300.764 340.633 300.659 340.633 300.531C340.633 300.402 340.529 300.297 340.399 300.297C340.27 300.297 340.165 300.402 340.165 300.531C340.165 300.659 340.27 300.764 340.399 300.764Z" fill="black"/>
<path opacity="0.8" d="M337.82 300.064C337.949 300.064 338.054 299.96 338.054 299.831C338.054 299.702 337.949 299.598 337.82 299.598C337.691 299.598 337.586 299.702 337.586 299.831C337.586 299.96 337.691 300.064 337.82 300.064Z" fill="black"/>
<path opacity="0.8" d="M352.793 300.862C352.922 300.862 353.027 300.758 353.027 300.629C353.027 300.5 352.922 300.396 352.793 300.396C352.663 300.396 352.559 300.5 352.559 300.629C352.559 300.758 352.663 300.862 352.793 300.862Z" fill="black"/>
<path opacity="0.8" d="M350.075 301.329C350.204 301.329 350.309 301.224 350.309 301.096C350.309 300.967 350.204 300.862 350.075 300.862C349.946 300.862 349.841 300.967 349.841 301.096C349.841 301.224 349.946 301.329 350.075 301.329Z" fill="black"/>
<path opacity="0.8" d="M347.127 301.562C347.256 301.562 347.361 301.458 347.361 301.329C347.361 301.2 347.256 301.096 347.127 301.096C346.997 301.096 346.893 301.2 346.893 301.329C346.893 301.458 346.997 301.562 347.127 301.562Z" fill="black"/>
<path opacity="0.8" d="M344.444 301.562C344.573 301.562 344.678 301.458 344.678 301.329C344.678 301.2 344.573 301.096 344.444 301.096C344.315 301.096 344.21 301.2 344.21 301.329C344.21 301.458 344.315 301.562 344.444 301.562Z" fill="black"/>
</g>
<g opacity="0.8">
<path opacity="0.8" d="M356.795 300.881C356.924 300.881 357.029 300.777 357.029 300.648C357.029 300.519 356.924 300.415 356.795 300.415C356.665 300.415 356.561 300.519 356.561 300.648C356.561 300.777 356.665 300.881 356.795 300.881Z" fill="black"/>
<path opacity="0.8" d="M355.606 301.212C355.736 301.212 355.84 301.108 355.84 300.979C355.84 300.85 355.736 300.746 355.606 300.746C355.477 300.746 355.372 300.85 355.372 300.979C355.372 301.108 355.477 301.212 355.606 301.212Z" fill="black"/>
<path opacity="0.8" d="M354.138 301.678C354.267 301.678 354.372 301.574 354.372 301.445C354.372 301.316 354.267 301.212 354.138 301.212C354.008 301.212 353.903 301.316 353.903 301.445C353.903 301.574 354.008 301.678 354.138 301.678Z" fill="black"/>
<path opacity="0.8" d="M351.504 302.243C351.633 302.243 351.738 302.139 351.738 302.01C351.738 301.881 351.633 301.777 351.504 301.777C351.374 301.777 351.27 301.881 351.27 302.01C351.27 302.139 351.374 302.243 351.504 302.243Z" fill="black"/>
<path opacity="0.8" d="M348.726 302.578C348.856 302.578 348.961 302.474 348.961 302.345C348.961 302.216 348.856 302.112 348.726 302.112C348.597 302.112 348.492 302.216 348.492 302.345C348.492 302.474 348.597 302.578 348.726 302.578Z" fill="black"/>
<path opacity="0.8" d="M345.851 302.71C345.981 302.71 346.086 302.606 346.086 302.477C346.086 302.348 345.981 302.244 345.851 302.244C345.722 302.244 345.617 302.348 345.617 302.477C345.617 302.606 345.722 302.71 345.851 302.71Z" fill="black"/>
<path opacity="0.8" d="M341.723 302.145C341.853 302.145 341.958 302.041 341.958 301.912C341.958 301.783 341.853 301.679 341.723 301.679C341.594 301.679 341.489 301.783 341.489 301.912C341.489 302.041 341.594 302.145 341.723 302.145Z" fill="black"/>
<path opacity="0.8" d="M343.091 302.477C343.22 302.477 343.325 302.372 343.325 302.243C343.325 302.115 343.22 302.01 343.091 302.01C342.961 302.01 342.856 302.115 342.856 302.243C342.856 302.372 342.961 302.477 343.091 302.477Z" fill="black"/>
<path opacity="0.8" d="M339.169 301.678C339.298 301.678 339.403 301.574 339.403 301.445C339.403 301.316 339.298 301.212 339.169 301.212C339.039 301.212 338.935 301.316 338.935 301.445C338.935 301.574 339.039 301.678 339.169 301.678Z" fill="black"/>
<path opacity="0.8" d="M340.399 301.912C340.529 301.912 340.633 301.807 340.633 301.679C340.633 301.55 340.529 301.445 340.399 301.445C340.27 301.445 340.165 301.55 340.165 301.679C340.165 301.807 340.27 301.912 340.399 301.912Z" fill="black"/>
<path opacity="0.8" d="M337.82 301.212C337.949 301.212 338.054 301.108 338.054 300.979C338.054 300.85 337.949 300.746 337.82 300.746C337.691 300.746 337.586 300.85 337.586 300.979C337.586 301.108 337.691 301.212 337.82 301.212Z" fill="black"/>
<path opacity="0.8" d="M352.793 302.01C352.922 302.01 353.027 301.906 353.027 301.777C353.027 301.648 352.922 301.544 352.793 301.544C352.663 301.544 352.559 301.648 352.559 301.777C352.559 301.906 352.663 302.01 352.793 302.01Z" fill="black"/>
<path opacity="0.8" d="M350.075 302.477C350.204 302.477 350.309 302.372 350.309 302.243C350.309 302.115 350.204 302.01 350.075 302.01C349.946 302.01 349.841 302.115 349.841 302.243C349.841 302.372 349.946 302.477 350.075 302.477Z" fill="black"/>
<path opacity="0.8" d="M347.127 302.71C347.256 302.71 347.361 302.606 347.361 302.477C347.361 302.348 347.256 302.244 347.127 302.244C346.997 302.244 346.893 302.348 346.893 302.477C346.893 302.606 346.997 302.71 347.127 302.71Z" fill="black"/>
<path opacity="0.8" d="M344.444 302.71C344.573 302.71 344.678 302.606 344.678 302.477C344.678 302.348 344.573 302.244 344.444 302.244C344.315 302.244 344.21 302.348 344.21 302.477C344.21 302.606 344.315 302.71 344.444 302.71Z" fill="black"/>
</g>
<g opacity="0.8">
<path opacity="0.8" d="M356.795 302.029C356.924 302.029 357.029 301.925 357.029 301.796C357.029 301.667 356.924 301.562 356.795 301.562C356.665 301.562 356.561 301.667 356.561 301.796C356.561 301.925 356.665 302.029 356.795 302.029Z" fill="black"/>
<path opacity="0.8" d="M355.606 302.36C355.736 302.36 355.84 302.256 355.84 302.127C355.84 301.998 355.736 301.894 355.606 301.894C355.477 301.894 355.372 301.998 355.372 302.127C355.372 302.256 355.477 302.36 355.606 302.36Z" fill="black"/>
<path opacity="0.8" d="M354.138 302.826C354.267 302.826 354.372 302.722 354.372 302.593C354.372 302.464 354.267 302.36 354.138 302.36C354.008 302.36 353.903 302.464 353.903 302.593C353.903 302.722 354.008 302.826 354.138 302.826Z" fill="black"/>
<path opacity="0.8" d="M351.504 303.391C351.633 303.391 351.738 303.287 351.738 303.158C351.738 303.029 351.633 302.925 351.504 302.925C351.374 302.925 351.27 303.029 351.27 303.158C351.27 303.287 351.374 303.391 351.504 303.391Z" fill="black"/>
<path opacity="0.8" d="M348.726 303.726C348.856 303.726 348.961 303.622 348.961 303.493C348.961 303.364 348.856 303.26 348.726 303.26C348.597 303.26 348.492 303.364 348.492 303.493C348.492 303.622 348.597 303.726 348.726 303.726Z" fill="black"/>
<path opacity="0.8" d="M345.851 303.858C345.981 303.858 346.086 303.754 346.086 303.625C346.086 303.496 345.981 303.392 345.851 303.392C345.722 303.392 345.617 303.496 345.617 303.625C345.617 303.754 345.722 303.858 345.851 303.858Z" fill="black"/>
<path opacity="0.8" d="M341.723 303.293C341.853 303.293 341.958 303.189 341.958 303.06C341.958 302.931 341.853 302.827 341.723 302.827C341.594 302.827 341.489 302.931 341.489 303.06C341.489 303.189 341.594 303.293 341.723 303.293Z" fill="black"/>
<path opacity="0.8" d="M343.091 303.625C343.22 303.625 343.325 303.52 343.325 303.391C343.325 303.263 343.22 303.158 343.091 303.158C342.961 303.158 342.856 303.263 342.856 303.391C342.856 303.52 342.961 303.625 343.091 303.625Z" fill="black"/>
<path opacity="0.8" d="M339.169 302.826C339.298 302.826 339.403 302.722 339.403 302.593C339.403 302.464 339.298 302.36 339.169 302.36C339.039 302.36 338.935 302.464 338.935 302.593C338.935 302.722 339.039 302.826 339.169 302.826Z" fill="black"/>
<path opacity="0.8" d="M340.399 303.06C340.529 303.06 340.633 302.955 340.633 302.827C340.633 302.698 340.529 302.593 340.399 302.593C340.27 302.593 340.165 302.698 340.165 302.827C340.165 302.955 340.27 303.06 340.399 303.06Z" fill="black"/>
<path opacity="0.8" d="M337.82 302.36C337.949 302.36 338.054 302.256 338.054 302.127C338.054 301.998 337.949 301.894 337.82 301.894C337.691 301.894 337.586 301.998 337.586 302.127C337.586 302.256 337.691 302.36 337.82 302.36Z" fill="black"/>
<path opacity="0.8" d="M352.793 303.158C352.922 303.158 353.027 303.054 353.027 302.925C353.027 302.796 352.922 302.692 352.793 302.692C352.663 302.692 352.559 302.796 352.559 302.925C352.559 303.054 352.663 303.158 352.793 303.158Z" fill="black"/>
<path opacity="0.8" d="M350.075 303.625C350.204 303.625 350.309 303.52 350.309 303.391C350.309 303.263 350.204 303.158 350.075 303.158C349.946 303.158 349.841 303.263 349.841 303.391C349.841 303.52 349.946 303.625 350.075 303.625Z" fill="black"/>
<path opacity="0.8" d="M347.127 303.858C347.256 303.858 347.361 303.754 347.361 303.625C347.361 303.496 347.256 303.392 347.127 303.392C346.997 303.392 346.893 303.496 346.893 303.625C346.893 303.754 346.997 303.858 347.127 303.858Z" fill="black"/>
<path opacity="0.8" d="M344.444 303.858C344.573 303.858 344.678 303.754 344.678 303.625C344.678 303.496 344.573 303.392 344.444 303.392C344.315 303.392 344.21 303.496 344.21 303.625C344.21 303.754 344.315 303.858 344.444 303.858Z" fill="black"/>
</g>
<g opacity="0.8">
<path opacity="0.8" d="M356.795 303.176C356.924 303.176 357.029 303.072 357.029 302.943C357.029 302.814 356.924 302.71 356.795 302.71C356.665 302.71 356.561 302.814 356.561 302.943C356.561 303.072 356.665 303.176 356.795 303.176Z" fill="black"/>
<path opacity="0.8" d="M355.606 303.507C355.736 303.507 355.84 303.403 355.84 303.274C355.84 303.145 355.736 303.041 355.606 303.041C355.477 303.041 355.372 303.145 355.372 303.274C355.372 303.403 355.477 303.507 355.606 303.507Z" fill="black"/>
<path opacity="0.8" d="M354.138 303.974C354.267 303.974 354.372 303.869 354.372 303.741C354.372 303.612 354.267 303.507 354.138 303.507C354.008 303.507 353.903 303.612 353.903 303.741C353.903 303.869 354.008 303.974 354.138 303.974Z" fill="black"/>
<path opacity="0.8" d="M351.504 304.539C351.633 304.539 351.738 304.434 351.738 304.305C351.738 304.177 351.633 304.072 351.504 304.072C351.374 304.072 351.27 304.177 351.27 304.305C351.27 304.434 351.374 304.539 351.504 304.539Z" fill="black"/>
<path opacity="0.8" d="M348.726 304.874C348.856 304.874 348.961 304.769 348.961 304.64C348.961 304.512 348.856 304.407 348.726 304.407C348.597 304.407 348.492 304.512 348.492 304.64C348.492 304.769 348.597 304.874 348.726 304.874Z" fill="black"/>
<path opacity="0.8" d="M345.851 305.006C345.981 305.006 346.086 304.901 346.086 304.772C346.086 304.643 345.981 304.539 345.851 304.539C345.722 304.539 345.617 304.643 345.617 304.772C345.617 304.901 345.722 305.006 345.851 305.006Z" fill="black"/>
<path opacity="0.8" d="M341.723 304.441C341.853 304.441 341.958 304.336 341.958 304.207C341.958 304.079 341.853 303.974 341.723 303.974C341.594 303.974 341.489 304.079 341.489 304.207C341.489 304.336 341.594 304.441 341.723 304.441Z" fill="black"/>
<path opacity="0.8" d="M343.091 304.772C343.22 304.772 343.325 304.668 343.325 304.539C343.325 304.41 343.22 304.306 343.091 304.306C342.961 304.306 342.856 304.41 342.856 304.539C342.856 304.668 342.961 304.772 343.091 304.772Z" fill="black"/>
<path opacity="0.8" d="M339.169 303.974C339.298 303.974 339.403 303.869 339.403 303.741C339.403 303.612 339.298 303.507 339.169 303.507C339.039 303.507 338.935 303.612 338.935 303.741C338.935 303.869 339.039 303.974 339.169 303.974Z" fill="black"/>
<path opacity="0.8" d="M340.399 304.207C340.529 304.207 340.633 304.103 340.633 303.974C340.633 303.845 340.529 303.741 340.399 303.741C340.27 303.741 340.165 303.845 340.165 303.974C340.165 304.103 340.27 304.207 340.399 304.207Z" fill="black"/>
<path opacity="0.8" d="M337.82 303.507C337.949 303.507 338.054 303.403 338.054 303.274C338.054 303.145 337.949 303.041 337.82 303.041C337.691 303.041 337.586 303.145 337.586 303.274C337.586 303.403 337.691 303.507 337.82 303.507Z" fill="black"/>
<path opacity="0.8" d="M352.793 304.306C352.922 304.306 353.027 304.201 353.027 304.073C353.027 303.944 352.922 303.839 352.793 303.839C352.663 303.839 352.559 303.944 352.559 304.073C352.559 304.201 352.663 304.306 352.793 304.306Z" fill="black"/>
<path opacity="0.8" d="M350.075 304.772C350.204 304.772 350.309 304.668 350.309 304.539C350.309 304.41 350.204 304.306 350.075 304.306C349.946 304.306 349.841 304.41 349.841 304.539C349.841 304.668 349.946 304.772 350.075 304.772Z" fill="black"/>
<path opacity="0.8" d="M347.127 305.006C347.256 305.006 347.361 304.901 347.361 304.772C347.361 304.643 347.256 304.539 347.127 304.539C346.997 304.539 346.893 304.643 346.893 304.772C346.893 304.901 346.997 305.006 347.127 305.006Z" fill="black"/>
<path opacity="0.8" d="M344.444 305.006C344.573 305.006 344.678 304.901 344.678 304.772C344.678 304.643 344.573 304.539 344.444 304.539C344.315 304.539 344.21 304.643 344.21 304.772C344.21 304.901 344.315 305.006 344.444 305.006Z" fill="black"/>
</g>
<g opacity="0.8">
<path opacity="0.8" d="M356.795 304.324C356.924 304.324 357.029 304.22 357.029 304.091C357.029 303.962 356.924 303.858 356.795 303.858C356.665 303.858 356.561 303.962 356.561 304.091C356.561 304.22 356.665 304.324 356.795 304.324Z" fill="black"/>
<path opacity="0.8" d="M355.606 304.655C355.736 304.655 355.84 304.551 355.84 304.422C355.84 304.293 355.736 304.189 355.606 304.189C355.477 304.189 355.372 304.293 355.372 304.422C355.372 304.551 355.477 304.655 355.606 304.655Z" fill="black"/>
<path opacity="0.8" d="M354.138 305.122C354.267 305.122 354.372 305.017 354.372 304.888C354.372 304.76 354.267 304.655 354.138 304.655C354.008 304.655 353.903 304.76 353.903 304.888C353.903 305.017 354.008 305.122 354.138 305.122Z" fill="black"/>
<path opacity="0.8" d="M351.504 305.687C351.633 305.687 351.738 305.582 351.738 305.453C351.738 305.325 351.633 305.22 351.504 305.22C351.374 305.22 351.27 305.325 351.27 305.453C351.27 305.582 351.374 305.687 351.504 305.687Z" fill="black"/>
<path opacity="0.8" d="M348.726 306.022C348.856 306.022 348.961 305.917 348.961 305.788C348.961 305.66 348.856 305.555 348.726 305.555C348.597 305.555 348.492 305.66 348.492 305.788C348.492 305.917 348.597 306.022 348.726 306.022Z" fill="black"/>
<path opacity="0.8" d="M345.851 306.153C345.981 306.153 346.086 306.049 346.086 305.92C346.086 305.791 345.981 305.687 345.851 305.687C345.722 305.687 345.617 305.791 345.617 305.92C345.617 306.049 345.722 306.153 345.851 306.153Z" fill="black"/>
<path opacity="0.8" d="M341.723 305.589C341.853 305.589 341.958 305.484 341.958 305.355C341.958 305.226 341.853 305.122 341.723 305.122C341.594 305.122 341.489 305.226 341.489 305.355C341.489 305.484 341.594 305.589 341.723 305.589Z" fill="black"/>
<path opacity="0.8" d="M343.091 305.92C343.22 305.92 343.325 305.816 343.325 305.687C343.325 305.558 343.22 305.454 343.091 305.454C342.961 305.454 342.856 305.558 342.856 305.687C342.856 305.816 342.961 305.92 343.091 305.92Z" fill="black"/>
<path opacity="0.8" d="M339.169 305.122C339.298 305.122 339.403 305.017 339.403 304.888C339.403 304.76 339.298 304.655 339.169 304.655C339.039 304.655 338.935 304.76 338.935 304.888C338.935 305.017 339.039 305.122 339.169 305.122Z" fill="black"/>
<path opacity="0.8" d="M340.399 305.355C340.529 305.355 340.633 305.251 340.633 305.122C340.633 304.993 340.529 304.889 340.399 304.889C340.27 304.889 340.165 304.993 340.165 305.122C340.165 305.251 340.27 305.355 340.399 305.355Z" fill="black"/>
<path opacity="0.8" d="M337.82 304.655C337.949 304.655 338.054 304.551 338.054 304.422C338.054 304.293 337.949 304.189 337.82 304.189C337.691 304.189 337.586 304.293 337.586 304.422C337.586 304.551 337.691 304.655 337.82 304.655Z" fill="black"/>
<path opacity="0.8" d="M352.793 305.454C352.922 305.454 353.027 305.349 353.027 305.221C353.027 305.092 352.922 304.987 352.793 304.987C352.663 304.987 352.559 305.092 352.559 305.221C352.559 305.349 352.663 305.454 352.793 305.454Z" fill="black"/>
<path opacity="0.8" d="M350.075 305.92C350.204 305.92 350.309 305.816 350.309 305.687C350.309 305.558 350.204 305.454 350.075 305.454C349.946 305.454 349.841 305.558 349.841 305.687C349.841 305.816 349.946 305.92 350.075 305.92Z" fill="black"/>
<path opacity="0.8" d="M347.127 306.153C347.256 306.153 347.361 306.049 347.361 305.92C347.361 305.791 347.256 305.687 347.127 305.687C346.997 305.687 346.893 305.791 346.893 305.92C346.893 306.049 346.997 306.153 347.127 306.153Z" fill="black"/>
<path opacity="0.8" d="M344.444 306.153C344.573 306.153 344.678 306.049 344.678 305.92C344.678 305.791 344.573 305.687 344.444 305.687C344.315 305.687 344.21 305.791 344.21 305.92C344.21 306.049 344.315 306.153 344.444 306.153Z" fill="black"/>
</g>
</svg>
