<svg width="448" height="390" viewBox="0 0 448 390" fill="none" xmlns="http://www.w3.org/2000/svg">
<g clip-path="url(#clip0)">
<path d="M283.357 92.3609H281.221V33.8592C281.221 29.4128 280.345 25.0098 278.643 20.9018C276.941 16.7938 274.446 13.0612 271.301 9.91709C268.157 6.77297 264.423 4.27892 260.314 2.57734C256.205 0.875765 251.801 -1.64849e-05 247.353 2.32716e-10H123.378C118.93 -1.57682e-05 114.526 0.875764 110.417 2.57734C106.308 4.27892 102.574 6.77297 99.4295 9.91709C96.2845 13.0612 93.7898 16.7938 92.0878 20.9018C90.3858 25.0098 89.5098 29.4128 89.5098 33.8592V354.804C89.5098 359.25 90.3858 363.653 92.0878 367.761C93.7898 371.869 96.2845 375.602 99.4295 378.746C102.574 381.89 106.308 384.384 110.417 386.086C114.526 387.787 118.93 388.663 123.378 388.663H247.353C251.801 388.663 256.205 387.787 260.314 386.086C264.423 384.384 268.157 381.89 271.301 378.746C274.446 375.602 276.941 371.869 278.643 367.761C280.345 363.653 281.221 359.25 281.221 354.804V134.003H283.357L283.357 92.3609Z" fill="#3F3D56"/>
<path d="M392.113 372.706H0.133789V373.797H392.113V372.706Z" fill="#3F3D56"/>
<path opacity="0.2" d="M248.719 8.80908H232.536C233.281 10.6332 233.565 12.6122 233.364 14.572C233.162 16.5317 232.482 18.4119 231.383 20.0469C230.284 21.682 228.8 23.0217 227.061 23.9481C225.322 24.8745 223.381 25.3592 221.411 25.3593H150.387C148.416 25.3592 146.476 24.8745 144.737 23.9481C142.998 23.0217 141.514 21.682 140.415 20.0469C139.315 18.4119 138.635 16.5317 138.434 14.572C138.233 12.6123 138.517 10.6332 139.262 8.80908H124.147C120.825 8.80908 117.536 9.46311 114.468 10.7338C111.399 12.0045 108.611 13.8671 106.262 16.2151C103.914 18.563 102.051 21.3505 100.78 24.4183C99.5087 27.4861 98.8545 30.7741 98.8545 34.0947V354.569C98.8545 357.889 99.5087 361.177 100.78 364.245C102.051 367.313 103.914 370.1 106.262 372.448C108.611 374.796 111.399 376.659 114.468 377.929C117.536 379.2 120.825 379.854 124.147 379.854H248.719C252.041 379.854 255.33 379.2 258.398 377.929C261.467 376.659 264.255 374.796 266.603 372.448C268.952 370.1 270.815 367.313 272.086 364.245C273.357 361.177 274.011 357.889 274.011 354.569V34.0947C274.011 30.7741 273.357 27.4861 272.086 24.4183C270.815 21.3505 268.952 18.563 266.603 16.2151C264.255 13.8671 261.467 12.0045 258.398 10.7338C255.33 9.46311 252.041 8.80908 248.719 8.80908V8.80908Z" fill="black"/>
<path d="M39.0682 373.739L38.4823 373.52C38.3535 373.471 25.539 368.563 19.5362 357.433C13.5331 346.303 16.4725 332.902 16.5029 332.768L16.6412 332.158L17.2269 332.378C17.3557 332.426 30.1699 337.335 36.173 348.464C42.1761 359.594 39.2367 372.995 39.2063 373.129L39.0682 373.739ZM20.4974 356.915C25.5726 366.325 35.699 371.149 38.2648 372.25C38.7526 369.501 40.2824 358.383 35.2117 348.982C30.1416 339.582 20.0112 334.751 17.4444 333.647C16.9563 336.398 15.4271 347.514 20.4974 356.915Z" fill="#3F3D56"/>
<path d="M24.1238 353.529C34.9118 360.018 39.0666 372.906 39.0666 372.906C39.0666 372.906 25.7306 375.274 14.9427 368.785C4.15478 362.297 0 349.408 0 349.408C0 349.408 13.3359 347.04 24.1238 353.529Z" fill="#63B4FF"/>
<path d="M154.296 125.471H130.296V131.247H154.296V125.471Z" fill="#63B4FF"/>
<path d="M237.407 125.471H228.963V131.247H237.407V125.471Z" fill="#63B4FF"/>
<path d="M254.296 125.471H245.852V131.247H254.296V125.471Z" fill="#63B4FF"/>
<path d="M220.074 125.471H162.74V131.247H220.074V125.471Z" fill="#63B4FF"/>
<path d="M207.185 162.794H198.74V168.571H207.185V162.794Z" fill="#63B4FF"/>
<path d="M224.074 162.794H215.63V168.571H224.074V162.794Z" fill="#63B4FF"/>
<path d="M189.852 162.794H132.519V168.571H189.852V162.794Z" fill="#63B4FF"/>
<path d="M223.185 138.356H199.185V144.132H223.185V138.356Z" fill="#63B4FF"/>
<path d="M255.63 138.356H231.63V144.132H255.63V138.356Z" fill="#63B4FF"/>
<path d="M125.407 138.356H116.963V144.132H125.407V138.356Z" fill="#63B4FF"/>
<path d="M191.185 138.356H133.852V144.132H191.185V138.356Z" fill="#63B4FF"/>
<path d="M149.407 156.574H173.407V150.797H149.407V156.574Z" fill="#63B4FF"/>
<path d="M116.963 156.574H140.963V150.797H116.963V156.574Z" fill="#63B4FF"/>
<path d="M247.185 156.574H255.63V150.797H247.185V156.574Z" fill="#63B4FF"/>
<path d="M181.407 156.574H238.74V150.797H181.407V156.574Z" fill="#63B4FF"/>
<path d="M186.434 269.551C198.494 269.551 208.271 259.777 208.271 247.719C208.271 235.662 198.494 225.888 186.434 225.888C174.374 225.888 164.597 235.662 164.597 247.719C164.597 259.777 174.374 269.551 186.434 269.551Z" fill="#63B4FF"/>
<path d="M327.24 118.701C320.903 107.997 308.367 107.498 308.367 107.498C308.367 107.498 296.151 105.936 288.314 122.239C281.01 137.434 270.929 152.105 286.691 155.662L289.538 146.803L291.301 156.322C293.546 156.483 295.797 156.522 298.045 156.437C314.925 155.892 331.001 156.597 330.483 150.541C329.795 142.491 333.337 129 327.24 118.701Z" fill="#2F2E41"/>
<path d="M304.42 138.859C304.42 138.859 312.609 150.321 307.696 159.599C302.782 168.878 319.16 178.702 319.16 178.702L331.171 152.504C331.171 152.504 316.976 143.225 320.798 134.493L304.42 138.859Z" fill="#FBBEBE"/>
<path d="M309.879 143.771C317.718 143.771 324.073 137.417 324.073 129.58C324.073 121.743 317.718 115.39 309.879 115.39C302.04 115.39 295.685 121.743 295.685 129.58C295.685 137.417 302.04 143.771 309.879 143.771Z" fill="#FBBEBE"/>
<path d="M260.757 145.985L272.619 130.684C272.619 130.684 276.796 114.646 282.845 115.459C288.894 116.272 280.456 134.693 280.456 134.693L268.669 151.629L260.757 145.985Z" fill="#FBBEBE"/>
<path d="M320.798 349.534L324.619 369.729L332.808 371.912L330.625 347.897L320.798 349.534Z" fill="#FBBEBE"/>
<path d="M403.233 327.703L417.974 347.897L423.979 350.626L428.892 342.439L414.152 323.336L403.233 327.703Z" fill="#FBBEBE"/>
<path d="M317.522 169.969L308.415 157.984C308.415 157.984 290.771 161.236 289.134 162.874C287.496 164.511 293.501 194.53 293.501 194.53C293.501 194.53 294.593 202.716 299.506 207.083L304.42 210.357L344.819 202.171L346.338 184.2C346.891 177.654 346.07 171.065 343.929 164.855C341.787 158.645 338.371 152.951 333.9 148.137L326.871 149.098L317.522 169.969Z" fill="#575A89"/>
<path d="M291.318 163.965L288.588 162.873L276.032 161.782C276.032 161.782 271.664 160.69 272.756 158.507C273.848 156.324 274.94 155.778 272.756 155.232C270.572 154.687 270.027 154.141 270.572 152.503C271.118 150.866 274.394 147.591 274.394 147.591L265.113 139.95C265.113 139.95 264.611 140.305 263.799 140.963C259.191 144.692 244.611 158.149 255.286 171.606C267.843 187.434 282.583 196.713 294.593 193.438L291.318 163.965Z" fill="#575A89"/>
<path d="M303.328 207.629V215.27C303.328 215.27 298.414 224.548 300.052 233.281C301.69 242.014 302.236 246.38 302.236 246.38C302.414 253.807 303.702 261.166 306.057 268.212C309.879 279.128 297.322 350.626 313.154 351.718C328.986 352.81 337.721 353.901 342.635 348.443C347.548 342.985 334.446 249.109 334.446 249.109C334.446 249.109 379.212 342.44 388.493 338.619C397.774 334.798 421.249 326.066 418.519 321.154C415.79 316.241 347.002 207.083 347.002 207.083L344.818 202.171L303.328 207.629Z" fill="#2F2E41"/>
<path d="M329.533 365.908C329.533 365.908 320.798 365.363 320.798 368.091C320.798 370.82 316.431 380.099 316.431 380.099C316.431 380.099 313.155 391.015 321.89 389.923C330.625 388.832 336.084 379.007 336.084 379.007L333.901 368.637L329.533 365.908Z" fill="#2F2E41"/>
<path d="M420.703 346.806C420.703 346.806 413.06 341.894 413.606 345.168C414.152 348.443 414.698 357.176 418.519 357.722C422.341 358.267 433.806 361.542 434.351 362.634C434.897 363.725 448 368.092 448 360.996C448 353.901 439.811 348.443 439.811 348.443L430.53 341.348C430.53 341.348 424.525 340.802 423.433 344.623C422.341 348.443 420.703 346.806 420.703 346.806Z" fill="#2F2E41"/>
<path d="M309.9 116.614C314.907 116.614 318.965 112.557 318.965 107.552C318.965 102.547 314.907 98.4897 309.9 98.4897C304.894 98.4897 300.836 102.547 300.836 107.552C300.836 112.557 304.894 116.614 309.9 116.614Z" fill="#2F2E41"/>
<path d="M324.437 117.669L312.052 111.183L294.948 113.836L291.41 129.461L300.219 129.123L302.68 123.382V129.028L306.744 128.872L309.103 119.732L310.578 129.461L325.028 129.166L324.437 117.669Z" fill="#2F2E41"/>
<path d="M323.696 208.893L304.596 209.409C304.596 209.409 288.297 212.58 289.212 206.003C290.126 199.426 306.026 201.727 306.026 201.727L323.431 199.072L323.696 208.893Z" fill="#FBBEBE"/>
<path d="M338.809 147.212C339.769 147.067 340.75 147.269 341.574 147.782C342.398 148.295 343.012 149.085 343.305 150.011C347.045 161.791 358.565 201.213 347.119 206.622C333.638 212.992 323.8 212.712 323.8 212.712L318.534 199.751L323.328 195.253L328.446 162.355L330.898 148.41L338.809 147.212Z" fill="#575A89"/>
<path opacity="0.4" d="M335.265 169.15L333.081 190.982L313.974 199.169L335.265 194.257V169.15Z" fill="black"/>
</g>
<defs>
<clipPath id="clip0">
<rect width="448" height="390" fill="white"/>
</clipPath>
</defs>
</svg>
